<?xml version="1.0" encoding="utf-8"?>
<!-- Generator: Adobe Illustrator 24.1.2, SVG Export Plug-In . SVG Version: 6.00 Build 0)  -->
<svg version="1.1" id="레이어_1" xmlns="http://www.w3.org/2000/svg" xmlns:xlink="http://www.w3.org/1999/xlink" x="0px"
	 y="0px" viewBox="0 0 432 380" style="enable-background:new 0 0 432 380;" xml:space="preserve">
<style type="text/css">
	.st0{fill:none;stroke:#FFFFFF;stroke-width:2;stroke-linecap:round;stroke-linejoin:round;stroke-miterlimit:10;}
</style>
<path class="st0" d="M297.2,27.5l-81.9,22.9l-82.1-22.9l82.1-17.4L297.2,27.5z M133.2,27.5v93.7l82.1,52.6V50.4L133.2,27.5
	 M297.5,27.5v93.7l-82.1,52.6V50.4L297.5,27.5 M178.2,173.1l-30.9-21l-41.6,21l30.1,24.6L178.2,173.1z M172.5,227.8l43-29.4
	l-36.3-24.7l-42.5,24.8L172.5,227.8z M217.1,264.3l42.9-35.6l-43.3-29.4l-43,29.5L217.1,264.3z M353.1,151.5l-40.5-18.1l-26.3,18.1
	l41.6,20.9L353.1,151.5z M119.1,132.9l-23.2-15.8l-39.3,15.7l22,18.1L119.1,132.9z M353.8,151l21.7-18l-39.2-15.7L313.4,133l0,0
	L353.8,151z M104.9,172.5l41.5-20.9l-26.6-18.1l-40.5,18.1L104.9,172.5z M197.9,162.9l-17.5,10.2l36.3,24.6l36-24.6L233.6,162
	L215,174L197.9,162.9z M120.9,132.9l26.6,18l17.9-9l-26.4-17.1L120.9,132.9z M55.4,133.4l-45.2,18.1l20.2,21l47-21L55.4,133.4z
	 M133.2,121v-17.1l-1.7-1L97,116.7l23.2,15.7l0,0l18.2-8.1L133.2,121z M253.7,172.4l30.6-20.9l-19.4-9.8l-30.4,19.6L253.7,172.4z
	 M285.2,151l26.4-18l-19.6-8.7l-26.3,17L285.2,151z M132.4,102.6l0.8,0.5v-0.8L132.4,102.6z M148.4,151.5l30.9,20.9l17.5-10.2
	l-30.6-19.8L148.4,151.5z M298.8,198.4l50.8,29.3l27.8-29.3l-48.9-24.7L298.8,198.4z M292.7,123.8l19.5,8.7l0.8,0.4l-0.8-0.4
	l23-15.6L300.7,103l-3.6,2.1L297,121L292.7,123.8z M327.1,173.1l-41.6-21l-30.6,21l42.6,24.6l1.4,0.8l-1.4-0.8L327.1,173.1z
	 M329.2,173.1l48.9,24.5l23.3-24.6l-47-21L329.2,173.1z M262.5,228.7l52.5,35.5l33.7-35.5l-50.8-29.4L262.5,228.7z M78.1,152.1
	L31,173.1l23.7,24.6l48.9-24.6L78.1,152.1z M299.8,102.6l-2.6-1l0,2.6L299.8,102.6z M355.1,151.5l46.9,20.9l19.8-20.9l-45.1-18.1
	L355.1,151.5z M163.8,311l53.8,55.8l53.1-56l-53.7-44.2L163.8,311z M172.3,229.7L120,265.5l42.4,44l53.2-44.1L172.3,229.7z
	 M104.4,173.8l-48.9,24.8l28.3,29.3l50.7-29.4L104.4,173.8z M135.4,199.3l-50.7,29.5l34.3,35.6l52.2-35.7L135.4,199.3z M296.5,198.4
	l-42.6-24.7l-36,24.7l43.3,29.3l0.7,0.5l-0.7-0.5L296.5,198.4z M218.5,265.4l53.7,43.9l41.8-44l-52.5-35.7L218.5,265.4z
	 M120.2,132.4L120.2,132.4l0.7,0.5l0,0l0,0L120.2,132.4z M138.4,124.3l-18.2,8.1l0.7,0.5l0,0l18.1-8.1L138.4,124.3z M313.4,133
	l-0.3-0.1L313.4,133z M261.8,228.2l0.7,0.5l0,0l0,0L261.8,228.2z M423.5,151.5c0-0.1-0.1-0.1-0.2-0.1c-0.1-0.1-0.2-0.1-0.3-0.1
	L297.1,101v0.6l2.6,1.1l-2.6,1.5l0,0.9l3.6-2.1l34.5,13.8l-22.9,15.6l0.8,0.4l0.3,0.1l22.9-15.7l39.3,15.7l-21.7,18l-40.5-18l0,0
	l0,0l-0.3-0.1l-0.8-0.4l-19.6-8.7l-0.7,0.5l19.6,8.7l-26.4,18l-19.4-9.8l-0.8,0.5l19.4,9.8l-30.6,20.9l-19.2-11.1l-1,0.6l19.2,11.1
	l-36,24.6l-36.3-24.6l17.5-10.2l-1-0.6l-17.5,10.2l-30.9-20.9l17.9-9.1l-0.8-0.5l-17.9,9l-26.7-18l0,0l-0.7-0.5l0,0l0,0L97,116.7
	l34.5-13.8l1.7,1V103l-0.8-0.4l0.8-0.3v-0.7L8.9,151.2c-0.1,0-0.2,0.1-0.3,0.1c-0.1,0.1-0.1,0.1-0.2,0.1c0,0.1-0.1,0.1-0.1,0.1
	c0,0.1,0,0.1,0.1,0.1l208.3,217.8c0.1,0.1,0.3,0.2,0.4,0.3s0.3,0.1,0.5,0.1s0.3,0,0.5-0.1c0.1-0.1,0.3-0.2,0.4-0.3l204.9-217.8
	c0,0,0-0.1,0-0.1C423.5,151.6,423.5,151.6,423.5,151.5z M312.6,133.4l40.5,18.1l-25.2,20.9l-41.6-20.9L312.6,133.4z M216.7,199.3
	l43.3,29.4l-42.9,35.6l-43.4-35.5L216.7,199.3z M215.5,198.5l-43,29.4l-35.8-29.3l42.5-24.7L215.5,198.5z M146.5,151.5l-41.5,20.9
	l0,0l0.8,0.7l41.6-21l30.9,21l-42.4,24.6l-30.1-24.6l-0.8-0.7l0,0l-25.6-20.9l40.5-18.1L146.5,151.5z M95.9,117.2l23.2,15.8
	l-40.5,18l-22-18L95.9,117.2z M10.1,151.5l45.2-18.1l22,18.1l-47,20.9L10.1,151.5z M31,173.1l47.1-21.1l25.5,21l-48.9,24.6L31,173.1
	z M55.5,198.6l48.9-24.8l30,24.7l-50.7,29.4L55.5,198.6z M84.7,228.8l50.7-29.6l35.8,29.5l-52.2,35.6L84.7,228.8z M120,265.5
	l52.3-35.8l43.4,35.7l-53.2,44.1L120,265.5z M217.6,366.8L163.8,311l53.3-44.4l53.7,44.2L217.6,366.8z M272.1,309.4l-53.7-43.9
	l42.9-35.8l52.5,35.7L272.1,309.4z M315,264.2l-52.5-35.5l0,0l-0.7-0.5l-0.7-0.5l-43.3-29.3l36-24.7l42.7,24.7l-35.4,29.3l0.7,0.5
	l0.7,0.5l0,0l35.3-29.5l50.8,29.4L315,264.2z M349.6,227.7l-50.8-29.3l-1.4-0.8l-42.6-24.6l30.6-21l41.6,21l-29.6,24.6l1.4,0.8
	l29.6-24.7l48.9,24.7L349.6,227.7z M378.1,197.6l-48.9-24.5l25.2-21l47,21L378.1,197.6z M402,172.4l-47-20.9l21.7-18.1l45.1,18.1
	L402,172.4z M105.7,173.1l-0.8-0.7l0,0l0,0L105.7,173.1z"/>
</svg>
