<?xml version="1.0" encoding="utf-8"?>
<!-- Generator: Adobe Illustrator 24.1.2, SVG Export Plug-In . SVG Version: 6.00 Build 0)  -->
<svg version="1.1" id="레이어_1" xmlns="http://www.w3.org/2000/svg" xmlns:xlink="http://www.w3.org/1999/xlink" x="0px"
	 y="0px" viewBox="0 0 280 251" style="enable-background:new 0 0 280 251;" xml:space="preserve">
<style type="text/css">
	.st0{fill:none;stroke:#FFFFFF;stroke-width:2;stroke-miterlimit:10;}
</style>
<path class="st0" d="M67.9,34C32,34,3,63.1,3,98.9c0,56.3,62,128.3,62,128.3s67.8-72,67.8-128.3C132.8,63.1,103.7,34,67.9,34z
	 M67.9,130.6c-17.5,0-31.7-14.2-31.7-31.7s14.2-31.7,31.7-31.7s31.7,14.2,31.7,31.7S85.4,130.6,67.9,130.6z M72.3,232.6
	c-4.7,4.9-7.6,7.6-7.6,7.6s-2.6-2.8-6.9-7.6c-20.5,0.7-36,4.4-36,8.8c0,4.9,19.4,8.9,43.3,8.9s43.3-4,43.3-8.9
	C108.3,237,92.7,233.4,72.3,232.6z M235,1.4c-21.1,0-38.3,17.1-38.3,38.3c0,33.2,36.5,75.7,36.5,75.7s40-42.5,40-75.7
	C273.3,18.5,256.1,1.4,235,1.4z M235,58.3c-10.3,0-18.7-8.4-18.7-18.7s8.4-18.7,18.7-18.7s18.7,8.4,18.7,18.7S245.3,58.3,235,58.3z
	 M237.5,120.7c-2.7,3.1-4.3,4.8-4.3,4.8s-1.5-1.8-3.9-4.8c-11.7,0.4-20.6,2.8-20.6,5.6c0,3.1,11.1,5.7,24.8,5.7s24.8-2.5,24.8-5.7
	C258.1,123.5,249.2,121.2,237.5,120.7z"/>
</svg>
