<svg width="1300" height="907" viewBox="0 0 1300 907" fill="none" xmlns="http://www.w3.org/2000/svg">
<g clip-path="url(#clip0)">
<path d="M740.619 422.138C740.619 472.879 699.215 514.029 648.119 514.029C597.024 514.029 555.619 472.879 555.619 422.138C555.619 371.397 597.024 330.247 648.119 330.247C699.215 330.247 740.619 371.397 740.619 422.138Z" stroke="white" stroke-width="3"/>
<path d="M648.119 336.53C695.61 336.53 734.119 375.039 734.119 422.53H648.119V336.53Z" fill="white"/>
<path d="M648.119 509.53V504.53" stroke="white" stroke-width="2" stroke-miterlimit="10" stroke-linecap="round"/>
<path d="M710.119 483.53L706.119 480.53" stroke="white" stroke-width="2" stroke-miterlimit="10" stroke-linecap="round"/>
<path d="M590.119 364.53L586.119 360.53" stroke="white" stroke-width="2" stroke-miterlimit="10" stroke-linecap="round"/>
<path d="M565.119 422.53H560.119" stroke="white" stroke-width="2" stroke-miterlimit="10" stroke-linecap="round"/>
<path d="M590.119 480.53L586.119 483.53" stroke="white" stroke-width="2" stroke-miterlimit="10" stroke-linecap="round"/>
<path d="M648.119 315.727V328.77" stroke="white" stroke-width="2" stroke-miterlimit="10" stroke-linecap="round"/>
<path d="M628.471 315.727H667.768" stroke="white" stroke-width="2" stroke-miterlimit="10" stroke-linecap="round"/>
</g>
<path d="M1210.1 189.449C1222.19 215.081 1218.31 246.931 1200.62 282.735C1182.93 318.528 1151.52 358.112 1108.84 399.057C1023.5 480.941 893.292 568.109 738.445 641.118C583.597 714.126 433.503 759.115 316.032 772.856C257.291 779.726 206.764 778.777 167.899 769.647C129.021 760.514 101.98 743.243 89.8951 717.611C77.8097 691.978 81.69 660.128 99.3812 624.324C117.067 588.532 148.482 548.947 191.157 508.002C276.5 426.118 406.707 338.95 561.555 265.942C716.402 192.933 866.496 147.944 983.968 134.203C1042.71 127.333 1093.24 128.283 1132.1 137.412C1170.98 146.545 1198.02 163.816 1210.1 189.449Z" stroke="#CCCCCC" stroke-width="2"/>
<path d="M1201.06 266.501C1209.7 291.973 1202.58 321.49 1182.23 353.088C1161.87 384.683 1128.31 418.32 1084.12 452.001C995.763 519.36 865.002 586.859 712.786 638.521C560.569 690.184 415.736 716.222 304.629 716.562C249.074 716.733 201.965 710.478 166.585 697.799C131.201 685.12 107.588 666.031 98.9432 640.559C90.2981 615.087 97.4136 585.57 117.769 553.972C138.123 522.377 171.693 488.74 215.875 455.059C304.235 387.7 434.996 320.201 587.213 268.539C739.43 216.876 884.262 190.838 995.369 190.498C1050.92 190.327 1098.03 196.582 1133.41 209.261C1168.8 221.94 1192.41 241.029 1201.06 266.501Z" stroke="white" stroke-width="0.5"/>
<g filter="url(#filter0_d)">
<path d="M573.48 645.898H561.816V647.386H566.856V650.938C566.856 652.762 566.64 653.674 565.128 655.378C564.024 656.626 562.656 657.946 561.144 659.29L562.272 660.418C563.712 659.17 565.32 657.466 565.968 656.794C566.664 656.05 567.6 654.97 567.72 654.538H567.744C567.864 654.85 568.536 655.594 569.232 656.338C570.192 657.37 571.344 658.546 573 660.082L574.104 658.954C572.328 657.37 570.912 655.954 569.976 654.874C568.704 653.41 568.56 652.642 568.56 650.818V647.386H573.48V645.898ZM572.424 651.442V652.978H577.392V665.794H579.096V643.858H577.392V651.442H572.424ZM600.94 643.858H599.236V665.794H600.94V643.858ZM594.532 645.658H592.852V651.082H586.132V645.658H584.452V659.986H594.532V645.658ZM586.132 652.594H592.852V658.45H586.132V652.594ZM604.615 655.09V656.53H624.775V655.09H619.279V651.802C620.671 651.178 621.583 650.17 621.583 648.85V648.034C621.583 645.538 618.367 644.242 614.695 644.242C611.023 644.242 607.807 645.538 607.807 648.034V648.85C607.807 650.194 608.719 651.178 610.135 651.802V655.09H604.615ZM614.695 666.37C618.631 666.37 621.583 664.81 621.583 662.554V661.738C621.583 659.482 618.631 657.922 614.695 657.922C610.759 657.922 607.807 659.482 607.807 661.738V662.554C607.807 664.81 610.759 666.37 614.695 666.37ZM614.695 659.362C617.455 659.362 619.951 660.394 619.951 661.882V662.41C619.951 663.898 617.455 664.93 614.695 664.93C611.935 664.93 609.439 663.898 609.439 662.41V661.882C609.439 660.394 611.935 659.362 614.695 659.362ZM614.695 645.682C617.335 645.682 619.951 646.618 619.951 648.154V648.73C619.951 650.266 617.335 651.202 614.695 651.202C612.055 651.202 609.439 650.266 609.439 648.73V648.154C609.439 646.618 612.055 645.682 614.695 645.682ZM614.695 652.642C615.727 652.642 616.711 652.546 617.623 652.354V655.09H611.791V652.354C612.679 652.546 613.663 652.642 614.695 652.642ZM632.459 661.234V662.698H652.619V661.234H641.843V652.81H640.115V661.234H632.459ZM648.755 658.426C649.331 655.33 649.595 652.546 649.595 648.514V645.922H635.003V647.41H647.843V649.402C647.843 652.618 647.531 655.258 646.979 658.21L648.755 658.426ZM654.303 661.234V662.698H674.463V661.234H668.703V656.914C670.095 656.242 671.007 655.21 671.007 653.842V652.978C671.007 650.482 668.007 649.09 664.383 649.09C660.759 649.09 657.759 650.482 657.759 652.978V653.842C657.759 655.21 658.647 656.242 660.063 656.914V661.234H654.303ZM664.383 650.506C667.239 650.506 669.423 651.538 669.423 653.098V653.722C669.423 655.282 667.239 656.314 664.383 656.314C661.527 656.314 659.343 655.282 659.343 653.722V653.098C659.343 651.538 661.527 650.506 664.383 650.506ZM665.247 643.642H663.543V646.33H656.247V647.77H672.519V646.33H665.247V643.642ZM664.383 657.73C665.319 657.73 666.207 657.634 667.023 657.466V661.234H661.743V657.466C662.559 657.634 663.447 657.73 664.383 657.73ZM676.147 653.17V654.61H681.979V657.178H679.027V658.594H691.651V660.826H679.147V665.89H693.955V664.474H680.803V662.218H693.307V657.178H690.475V654.61H696.307V653.17H676.147ZM693.091 647.53C693.091 645.37 690.091 644.026 686.227 644.026C682.363 644.026 679.363 645.346 679.363 647.53V648.202C679.363 650.362 682.363 651.706 686.227 651.706C690.091 651.706 693.091 650.362 693.091 648.202V647.53ZM681.019 647.626C681.019 646.378 683.347 645.442 686.227 645.442C689.107 645.442 691.435 646.378 691.435 647.626V648.106C691.435 649.354 689.107 650.29 686.227 650.29C683.347 650.29 681.019 649.354 681.019 648.106V647.626ZM683.635 654.61H688.819V657.178H683.635V654.61ZM579.617 687.95H575.837V707.81H579.617V698.18H583.277V694.88H579.617V687.95ZM566.057 706.25H562.247V715.55H580.277V712.31H566.057V706.25ZM558.617 703.34C566.327 703.34 570.257 703.28 573.887 702.8L573.557 699.62C569.687 700.04 566.567 700.1 562.367 700.1V692.93H571.667V689.66H558.617V703.34ZM608.272 687.95H604.462V715.85H608.272V687.95ZM597.712 702.05C595.912 700.1 595.582 698.78 595.582 696.41V689.9H591.712V696.41C591.712 698.87 591.142 700.34 589.402 702.26C588.112 703.67 586.582 705.17 584.902 706.67L587.392 709.25C589.102 707.66 590.272 706.52 591.382 705.35C592.372 704.33 593.452 703.1 593.632 702.56H593.692C593.902 703.07 594.772 704.06 595.912 705.23C597.022 706.37 598.342 707.69 599.692 708.95L602.122 706.4C600.562 704.99 599.002 703.46 597.712 702.05ZM634.227 687.95H630.447V707.81H634.227V698.72H637.887V695.42H634.227V687.95ZM620.667 706.34H616.857V715.55H634.887V712.31H620.667V706.34ZM613.887 705.77C623.877 701.45 625.767 699.71 625.767 694.97V689.66H613.527V692.9H621.987V694.58C621.987 697.85 620.787 698.99 612.327 702.68L613.887 705.77ZM647.551 693.86H652.021V697.43C652.021 699.65 651.541 700.73 650.251 702.35C649.111 703.79 647.551 705.47 646.321 706.67L648.811 709.16C650.041 707.93 651.421 706.4 652.411 705.2C653.161 704.3 653.821 703.49 654.001 703.01H654.031C654.241 703.49 654.871 704.24 655.591 705.08C656.491 706.16 657.721 707.45 658.861 708.65L661.351 706.31C660.061 705.05 658.531 703.43 657.421 702.02C656.191 700.49 655.711 699.44 655.711 697.4V693.86H660.001V690.62H647.551V693.86ZM662.011 714.5H665.611V688.52H662.011V697.04H658.591V700.34H662.011V714.5ZM671.221 687.95H667.621V715.85H671.221V687.95ZM675.336 692.75H680.766V694.28C680.766 695.75 680.166 696.86 679.116 697.79C677.856 698.9 676.056 700.28 674.166 701.57L676.386 704.33C677.886 703.28 679.206 702.26 680.496 701.24C681.876 700.16 682.716 699.35 682.836 698.99H682.866C682.986 699.29 683.766 699.98 685.026 700.91C686.136 701.72 687.396 702.59 688.716 703.46L690.756 700.79C689.256 699.83 687.756 698.81 686.496 697.85C684.906 696.62 684.546 695.75 684.546 694.28V692.75H689.736V689.54H675.336V692.75ZM678.546 708.68H692.556V716.18H696.336V705.47H678.546V708.68ZM696.336 687.95H692.556V704.21H696.336V697.58H699.996V694.28H696.336V687.95Z" fill="white"/>
</g>
<g filter="url(#filter1_d)">
<path d="M142.893 418.85H144.741L150.069 434.426H150.093L155.421 418.85H157.173L150.981 436.154H149.061L142.893 418.85ZM166.333 428.666C166.221 428.682 166.109 428.69 165.997 428.69C165.901 428.69 165.797 428.69 165.685 428.69H161.365V436.154H159.685V418.85H165.661C166.525 418.85 167.293 418.97 167.965 419.21C168.637 419.434 169.205 419.762 169.669 420.194C170.149 420.61 170.509 421.106 170.749 421.682C170.989 422.258 171.109 422.882 171.109 423.554V423.914C171.109 424.97 170.829 425.882 170.269 426.65C169.709 427.402 168.949 427.954 167.989 428.306L171.469 436.154H169.669L166.333 428.666ZM161.365 420.362V427.178H165.157C166.661 427.178 167.741 426.89 168.397 426.314C169.069 425.722 169.405 424.898 169.405 423.842V423.602C169.405 422.594 169.077 421.802 168.421 421.226C167.781 420.65 166.781 420.362 165.421 420.362H161.365ZM197.699 438.794H195.995V416.858H197.699V438.794ZM180.779 432.434C182.619 431.378 184.083 430.474 185.171 429.722C186.259 428.954 187.083 428.242 187.643 427.586C188.203 426.914 188.563 426.242 188.723 425.57C188.899 424.898 188.987 424.114 188.987 423.218V420.458H181.019V418.922H190.643V423.242C190.643 423.978 190.603 424.642 190.523 425.234C190.443 425.826 190.283 426.386 190.043 426.914C189.819 427.442 189.499 427.954 189.083 428.45C188.667 428.946 188.123 429.466 187.451 430.01C186.795 430.554 185.987 431.138 185.027 431.762C184.083 432.37 182.963 433.05 181.667 433.802L180.779 432.434ZM221.654 426.098V427.538H212.414V430.082H218.654V435.17H206.15V437.474H219.302V438.89H204.494V433.778H216.998V431.498H204.374V430.082H210.734V427.538H201.494V426.098H221.654ZM211.574 421.01C211.462 421.266 211.142 421.554 210.614 421.874C210.086 422.178 209.454 422.49 208.718 422.81C208.094 423.082 207.382 423.386 206.582 423.722C205.798 424.042 204.854 424.41 203.75 424.826L203.078 423.434C204.038 423.098 204.982 422.746 205.91 422.378C206.838 422.01 207.598 421.69 208.19 421.418C208.67 421.21 209.07 421.002 209.39 420.794C209.726 420.586 209.99 420.378 210.182 420.17C210.39 419.946 210.534 419.714 210.614 419.474C210.694 419.218 210.734 418.938 210.734 418.634V417.026H212.438V418.634C212.438 418.938 212.478 419.218 212.558 419.474C212.638 419.714 212.774 419.946 212.966 420.17C213.158 420.378 213.414 420.586 213.734 420.794C214.07 421.002 214.478 421.21 214.958 421.418C215.55 421.69 216.302 422.01 217.214 422.378C218.126 422.73 219.07 423.082 220.046 423.434L219.446 424.802C218.406 424.418 217.47 424.058 216.638 423.722C215.806 423.37 215.078 423.058 214.454 422.786C213.718 422.466 213.086 422.154 212.558 421.85C212.046 421.546 211.726 421.266 211.598 421.01H211.574ZM243.498 426.674V428.114H223.338V426.674H243.498ZM240.282 421.418C240.282 421.978 240.106 422.482 239.754 422.93C239.402 423.378 238.914 423.762 238.29 424.082C237.682 424.386 236.954 424.626 236.106 424.802C235.274 424.962 234.378 425.042 233.418 425.042C232.458 425.042 231.554 424.962 230.706 424.802C229.874 424.626 229.146 424.386 228.522 424.082C227.914 423.762 227.434 423.378 227.082 422.93C226.73 422.482 226.554 421.978 226.554 421.418V420.698C226.554 420.122 226.73 419.61 227.082 419.162C227.434 418.714 227.914 418.338 228.522 418.034C229.146 417.714 229.874 417.474 230.706 417.314C231.554 417.154 232.458 417.074 233.418 417.074C234.378 417.074 235.274 417.162 236.106 417.338C236.954 417.498 237.682 417.738 238.29 418.058C238.914 418.362 239.402 418.738 239.754 419.186C240.106 419.634 240.282 420.138 240.282 420.698V421.418ZM228.21 421.346C228.21 421.666 228.346 421.97 228.618 422.258C228.89 422.53 229.258 422.77 229.722 422.978C230.202 423.186 230.754 423.346 231.378 423.458C232.018 423.57 232.698 423.626 233.418 423.626C234.138 423.626 234.81 423.57 235.434 423.458C236.074 423.346 236.626 423.186 237.09 422.978C237.57 422.77 237.946 422.53 238.218 422.258C238.49 421.97 238.626 421.666 238.626 421.346V420.77C238.626 420.45 238.49 420.154 238.218 419.882C237.946 419.594 237.57 419.354 237.09 419.162C236.626 418.954 236.074 418.794 235.434 418.682C234.81 418.554 234.138 418.49 233.418 418.49C232.698 418.49 232.018 418.554 231.378 418.682C230.754 418.794 230.202 418.954 229.722 419.162C229.258 419.354 228.89 419.594 228.618 419.882C228.346 420.154 228.21 420.45 228.21 420.77V421.346ZM240.498 430.034V435.146H228.018V437.474H241.146V438.89H226.362V433.754H238.842V431.45H226.242V430.034H240.498ZM269.278 438.794H267.574V416.858H269.278V438.794ZM263.23 427.034C263.23 429.05 262.75 430.618 261.79 431.738C260.846 432.858 259.518 433.418 257.806 433.418C256.094 433.418 254.758 432.858 253.798 431.738C252.854 430.618 252.382 429.05 252.382 427.034V424.754C252.382 422.738 252.854 421.178 253.798 420.074C254.758 418.954 256.094 418.394 257.806 418.394C259.518 418.394 260.846 418.954 261.79 420.074C262.75 421.194 263.23 422.762 263.23 424.778V427.034ZM261.574 425.066C261.574 424.154 261.478 423.378 261.286 422.738C261.11 422.098 260.854 421.578 260.518 421.178C260.198 420.762 259.806 420.458 259.342 420.266C258.878 420.074 258.366 419.978 257.806 419.978C257.246 419.978 256.734 420.074 256.27 420.266C255.806 420.458 255.406 420.762 255.07 421.178C254.75 421.578 254.494 422.098 254.302 422.738C254.126 423.378 254.038 424.154 254.038 425.066V426.746C254.038 427.658 254.126 428.442 254.302 429.098C254.494 429.738 254.75 430.266 255.07 430.682C255.406 431.082 255.806 431.378 256.27 431.57C256.734 431.762 257.246 431.858 257.806 431.858C258.366 431.858 258.878 431.762 259.342 431.57C259.806 431.378 260.198 431.082 260.518 430.682C260.854 430.266 261.11 429.738 261.286 429.098C261.478 428.442 261.574 427.658 261.574 426.746V425.066ZM278.546 428.09V424.802C277.826 424.482 277.258 424.082 276.842 423.602C276.426 423.106 276.218 422.522 276.218 421.85V421.034C276.218 420.41 276.402 419.866 276.77 419.402C277.154 418.922 277.658 418.522 278.282 418.202C278.922 417.882 279.658 417.642 280.49 417.482C281.322 417.322 282.194 417.242 283.106 417.242C284.018 417.242 284.89 417.322 285.722 417.482C286.554 417.642 287.282 417.882 287.906 418.202C288.546 418.522 289.05 418.922 289.418 419.402C289.802 419.866 289.994 420.41 289.994 421.034V421.85C289.994 422.522 289.786 423.106 289.37 423.602C288.954 424.082 288.394 424.482 287.69 424.802V428.09H293.186V429.53H273.026V428.09H278.546ZM283.106 439.37C282.114 439.37 281.194 439.274 280.346 439.082C279.514 438.906 278.794 438.65 278.186 438.314C277.578 437.978 277.098 437.57 276.746 437.09C276.394 436.626 276.218 436.114 276.218 435.554V434.738C276.218 434.178 276.394 433.666 276.746 433.202C277.098 432.722 277.578 432.314 278.186 431.978C278.794 431.642 279.514 431.386 280.346 431.21C281.194 431.018 282.114 430.922 283.106 430.922C284.082 430.922 284.994 431.018 285.842 431.21C286.69 431.386 287.418 431.642 288.026 431.978C288.634 432.314 289.114 432.722 289.466 433.202C289.818 433.666 289.994 434.178 289.994 434.738V435.554C289.994 436.114 289.818 436.626 289.466 437.09C289.114 437.57 288.634 437.978 288.026 438.314C287.418 438.65 286.69 438.906 285.842 439.082C284.994 439.274 284.082 439.37 283.106 439.37ZM283.106 432.362C282.418 432.362 281.754 432.426 281.114 432.554C280.49 432.666 279.93 432.834 279.434 433.058C278.954 433.282 278.57 433.554 278.282 433.874C277.994 434.178 277.85 434.514 277.85 434.882V435.41C277.85 435.778 277.994 436.114 278.282 436.418C278.57 436.738 278.954 437.01 279.434 437.234C279.93 437.458 280.49 437.626 281.114 437.738C281.754 437.866 282.418 437.93 283.106 437.93C283.794 437.93 284.45 437.866 285.074 437.738C285.714 437.626 286.274 437.458 286.754 437.234C287.25 437.01 287.642 436.738 287.93 436.418C288.218 436.114 288.362 435.778 288.362 435.41V434.882C288.362 434.514 288.218 434.178 287.93 433.874C287.642 433.554 287.25 433.282 286.754 433.058C286.274 432.834 285.714 432.666 285.074 432.554C284.45 432.426 283.794 432.362 283.106 432.362ZM283.106 418.682C282.45 418.682 281.802 418.738 281.162 418.85C280.538 418.962 279.978 419.13 279.482 419.354C278.986 419.562 278.586 419.818 278.282 420.122C277.994 420.426 277.85 420.77 277.85 421.154V421.73C277.85 422.114 277.994 422.458 278.282 422.762C278.586 423.066 278.986 423.33 279.482 423.554C279.978 423.762 280.538 423.922 281.162 424.034C281.802 424.146 282.45 424.202 283.106 424.202C283.762 424.202 284.402 424.146 285.026 424.034C285.666 423.922 286.226 423.762 286.706 423.554C287.202 423.33 287.602 423.066 287.906 422.762C288.21 422.458 288.362 422.114 288.362 421.73V421.154C288.362 420.77 288.21 420.426 287.906 420.122C287.602 419.818 287.202 419.562 286.706 419.354C286.226 419.13 285.666 418.962 285.026 418.85C284.402 418.738 283.762 418.682 283.106 418.682ZM283.106 425.642C282.05 425.642 281.082 425.546 280.202 425.354V428.09H286.034V425.354C285.122 425.546 284.146 425.642 283.106 425.642ZM306.461 426.866C306.461 427.362 306.341 427.842 306.101 428.306C305.877 428.77 305.549 429.186 305.117 429.554C304.685 429.906 304.157 430.194 303.533 430.418C302.909 430.626 302.205 430.73 301.421 430.73C300.637 430.73 299.933 430.626 299.309 430.418C298.685 430.194 298.157 429.906 297.725 429.554C297.293 429.186 296.957 428.77 296.717 428.306C296.493 427.842 296.381 427.362 296.381 426.866V425.954C296.381 425.458 296.493 424.978 296.717 424.514C296.957 424.05 297.293 423.642 297.725 423.29C298.157 422.922 298.685 422.634 299.309 422.426C299.933 422.202 300.637 422.09 301.421 422.09C302.205 422.09 302.909 422.202 303.533 422.426C304.157 422.634 304.685 422.922 305.117 423.29C305.549 423.642 305.877 424.05 306.101 424.514C306.341 424.978 306.461 425.458 306.461 425.954V426.866ZM301.421 429.29C301.949 429.29 302.421 429.218 302.837 429.074C303.269 428.914 303.629 428.714 303.917 428.474C304.221 428.234 304.453 427.97 304.613 427.682C304.773 427.378 304.853 427.082 304.853 426.794V426.026C304.853 425.738 304.773 425.45 304.613 425.162C304.453 424.858 304.221 424.586 303.917 424.346C303.629 424.106 303.269 423.914 302.837 423.77C302.421 423.61 301.949 423.53 301.421 423.53C300.893 423.53 300.413 423.61 299.981 423.77C299.565 423.914 299.205 424.106 298.901 424.346C298.613 424.586 298.389 424.858 298.229 425.162C298.069 425.45 297.989 425.738 297.989 426.026V426.794C297.989 427.082 298.069 427.378 298.229 427.682C298.389 427.97 298.613 428.234 298.901 428.474C299.205 428.714 299.565 428.914 299.981 429.074C300.413 429.218 300.893 429.29 301.421 429.29ZM312.125 423.554H315.485V425.042H312.125V432.818H310.445V416.858H312.125V423.554ZM300.749 437.042H312.797V438.53H299.045V432.458H300.749V437.042ZM302.261 419.45H307.757V420.914H295.133V419.45H300.581V416.642H302.261V419.45ZM180.24 466.47C180.96 465.53 181.82 464.78 182.82 464.22C183.82 463.64 185.1 463.35 186.66 463.35C187.68 463.35 188.6 463.48 189.42 463.74C190.24 464 190.94 464.37 191.52 464.85C192.1 465.31 192.55 465.88 192.87 466.56C193.19 467.22 193.35 467.95 193.35 468.75V469.05C193.35 469.47 193.3 469.93 193.2 470.43C193.12 470.91 192.96 471.38 192.72 471.84C192.48 472.28 192.16 472.69 191.76 473.07C191.36 473.45 190.85 473.76 190.23 474C191.67 474.26 192.73 474.83 193.41 475.71C194.09 476.59 194.43 477.65 194.43 478.89V479.34C194.43 480.16 194.27 480.95 193.95 481.71C193.63 482.47 193.14 483.14 192.48 483.72C191.84 484.3 191.02 484.76 190.02 485.1C189.04 485.46 187.89 485.64 186.57 485.64C185.31 485.64 184.09 485.44 182.91 485.04C181.75 484.66 180.66 484.06 179.64 483.24L181.53 480.24C182.05 480.62 182.52 480.94 182.94 481.2C183.38 481.46 183.8 481.67 184.2 481.83C184.6 481.97 184.99 482.07 185.37 482.13C185.75 482.19 186.16 482.22 186.6 482.22C187.96 482.22 188.96 481.95 189.6 481.41C190.24 480.87 190.56 480.12 190.56 479.16V478.77C190.56 477.71 190.25 476.94 189.63 476.46C189.01 475.96 188.01 475.71 186.63 475.71H183.72V472.41H186.3C186.98 472.41 187.53 472.34 187.95 472.2C188.39 472.04 188.73 471.83 188.97 471.57C189.21 471.29 189.37 470.96 189.45 470.58C189.55 470.18 189.6 469.75 189.6 469.29V469.05C189.6 468.23 189.33 467.64 188.79 467.28C188.27 466.9 187.56 466.71 186.66 466.71C185.74 466.71 184.99 466.88 184.41 467.22C183.85 467.56 183.33 467.99 182.85 468.51L180.24 466.47ZM206.823 463.68C210.043 463.68 212.413 464.48 213.933 466.08C215.453 467.66 216.213 469.95 216.213 472.95V476.04C216.213 477.54 216.043 478.87 215.703 480.03C215.363 481.17 214.813 482.13 214.053 482.91C213.313 483.69 212.353 484.28 211.173 484.68C209.993 485.1 208.563 485.31 206.883 485.31H199.293V463.68H206.823ZM203.103 482.07H206.313C207.273 482.07 208.123 481.96 208.863 481.74C209.623 481.52 210.253 481.17 210.753 480.69C211.273 480.21 211.663 479.58 211.923 478.8C212.203 478 212.343 477.03 212.343 475.89V473.1C212.343 470.82 211.833 469.22 210.813 468.3C209.813 467.38 208.313 466.92 206.313 466.92H203.103V482.07ZM251.799 477.48V480.66H240.939V488.88H237.129V480.66H226.239V477.48H251.799ZM248.499 475.35H229.569V462.21H248.199V465.33H233.319V467.25H247.959V470.31H233.319V472.23H248.499V475.35ZM261.764 482.28C260.484 482.28 259.384 482.08 258.464 481.68C257.564 481.28 256.824 480.72 256.244 480C255.664 479.28 255.234 478.43 254.954 477.45C254.694 476.47 254.564 475.39 254.564 474.21V470.88C254.564 469.72 254.694 468.65 254.954 467.67C255.234 466.67 255.664 465.81 256.244 465.09C256.824 464.37 257.564 463.81 258.464 463.41C259.384 463.01 260.484 462.81 261.764 462.81C263.004 462.81 264.074 463.01 264.974 463.41C265.874 463.79 266.614 464.33 267.194 465.03C267.774 465.71 268.204 466.53 268.484 467.49C268.784 468.43 268.944 469.46 268.964 470.58H273.284V460.95H277.094V488.85H273.284V473.85H268.964V474.21C268.964 475.39 268.824 476.47 268.544 477.45C268.284 478.43 267.864 479.28 267.284 480C266.704 480.72 265.954 481.28 265.034 481.68C264.134 482.08 263.044 482.28 261.764 482.28ZM261.764 466.14C260.484 466.14 259.564 466.58 259.004 467.46C258.464 468.34 258.194 469.63 258.194 471.33V473.76C258.194 475.46 258.464 476.75 259.004 477.63C259.564 478.51 260.484 478.95 261.764 478.95C263.044 478.95 263.954 478.51 264.494 477.63C265.054 476.75 265.334 475.46 265.334 473.76V471.33C265.334 469.63 265.054 468.34 264.494 467.46C263.954 466.58 263.044 466.14 261.764 466.14Z" fill="white"/>
</g>
<g filter="url(#filter2_d)">
<path d="M1107.02 98.9495H1103.21V126.85H1107.02V98.9495ZM1098.86 101.17H1095.11V107.44H1089.14V101.17H1085.39V119.65H1098.86V101.17ZM1089.14 110.68H1095.11V116.47H1089.14V110.68ZM1129.08 99.5195H1125.45V125.5H1129.08V111.73H1131.54V126.85H1135.17V98.9495H1131.54V108.46H1129.08V99.5195ZM1111.77 101.59V119.44H1116.39C1118.88 119.44 1121.79 119.35 1124.22 118.93L1123.83 115.69C1121.34 116.08 1118.82 116.17 1116.39 116.17H1115.52V104.86H1122.54V101.59H1111.77ZM1152.36 100.6H1139.28V114.25H1152.36V100.6ZM1148.61 111.07H1143.03V103.78H1148.61V111.07ZM1153.8 102.88V106.09H1157.55V108.82H1153.8V112.03H1157.55V118.81H1161.3V98.9495H1157.55V102.88H1153.8ZM1147.35 117.19H1143.54V126.55H1161.75V123.31H1147.35V117.19ZM1052.23 154.354C1055.16 154.354 1057.51 152.818 1057.51 150.778V149.866C1057.51 147.826 1055.16 146.29 1052.23 146.29C1049.3 146.29 1046.95 147.826 1046.95 149.866V150.778C1046.95 152.818 1049.3 154.354 1052.23 154.354ZM1056.55 159.082V160.57H1061.49V162.898H1063.17V145.858H1061.49V159.082H1056.55ZM1052.23 147.73C1054.25 147.73 1055.9 148.762 1055.9 150.01V150.634C1055.9 151.882 1054.25 152.914 1052.23 152.914C1050.21 152.914 1048.56 151.882 1048.56 150.634V150.01C1048.56 148.762 1050.21 147.73 1052.23 147.73ZM1050.86 161.722H1049.16V167.53H1063.68V166.042H1050.86V161.722ZM1059.67 155.386C1055.54 155.818 1052.33 155.914 1045.41 155.914V157.378C1047.62 157.378 1049.47 157.378 1051.08 157.33V160.786H1052.78V157.306C1055.61 157.21 1057.65 157.066 1059.81 156.85L1059.67 155.386ZM1068.65 162.778C1074.36 159.49 1076.52 157.738 1077.29 155.314H1083.34V167.794H1085.02V145.858H1083.34V153.778H1077.6C1077.65 153.298 1077.67 152.794 1077.67 152.218V147.946H1068V149.482H1076.02V152.242C1076.02 155.866 1075.08 157.258 1067.79 161.41L1068.65 162.778ZM1106.79 145.858H1105.09V167.794H1106.79V145.858ZM1092.05 155.434H1100V147.634H1090.37V149.122H1098.32V153.946H1090.37V162.346H1094.91C1097.53 162.346 1100.26 162.226 1102.81 161.818L1102.61 160.354C1100.38 160.714 1097.77 160.834 1095.34 160.834H1092.05V155.434ZM1133.1 159.418V162.01H1123.02V159.418H1121.36V167.794H1134.75V159.418H1133.1ZM1122.99 158.338C1126.38 158.338 1127.99 156.61 1127.99 154.93V154.21C1127.99 152.53 1126.38 150.802 1122.99 150.802C1119.61 150.802 1118 152.53 1118 154.21V154.93C1118 156.61 1119.61 158.338 1122.99 158.338ZM1129.38 151.162V152.626H1133.1V154.978H1129.38V156.442H1133.1V158.122H1134.75V145.858H1133.1V151.162H1129.38ZM1123.02 166.282V163.498H1133.1V166.282H1123.02ZM1122.99 152.218C1125.3 152.218 1126.35 153.346 1126.35 154.306V154.834C1126.35 155.794 1125.3 156.922 1122.99 156.922C1120.69 156.922 1119.63 155.794 1119.63 154.834V154.306C1119.63 153.346 1120.69 152.218 1122.99 152.218ZM1123.81 145.546H1122.13V148.306H1116.73V149.77H1129.45V148.306H1123.81V145.546ZM1139.15 152.194C1139.15 154.402 1141.31 156.562 1144.5 156.562C1147.62 156.562 1149.76 154.498 1149.85 152.338H1154.85V157.066H1156.53V145.858H1154.85V150.85H1149.85C1149.73 148.714 1147.6 146.674 1144.5 146.674C1141.31 146.674 1139.15 148.834 1139.15 151.042V152.194ZM1154.87 158.362V161.386H1144.79V158.362H1143.13V167.77H1156.53V158.362H1154.87ZM1148.22 152.026C1148.22 153.61 1146.64 155.05 1144.5 155.05C1142.37 155.05 1140.78 153.61 1140.78 152.026V151.21C1140.78 149.626 1142.37 148.186 1144.5 148.186C1146.64 148.186 1148.22 149.626 1148.22 151.21V152.026ZM1144.79 166.258V162.874H1154.87V166.258H1144.79ZM1160.22 157.354V158.818H1169.44V167.794H1171.14V158.818H1180.38V157.354H1176.52C1176.98 155.17 1177.24 152.458 1177.24 149.914V147.298H1162.86V148.762H1175.51V150.466C1175.51 152.554 1175.25 155.194 1174.77 157.354H1160.22ZM1184.59 149.29H1191.28V150.13C1191.28 152.602 1190.83 153.154 1188.52 154.69C1187.42 155.41 1185.5 156.514 1183.48 157.522L1184.37 158.842C1186.08 157.954 1188.07 156.802 1189.48 155.89C1191.14 154.81 1191.96 154.162 1192.15 153.706H1192.17C1192.39 154.162 1193.18 154.786 1194.84 155.866C1196.25 156.778 1198.22 157.906 1199.9 158.77L1200.76 157.498C1198.75 156.49 1196.88 155.41 1195.77 154.69C1193.47 153.154 1193.01 152.602 1193.01 150.13V149.29H1199.71V147.826H1184.59V149.29ZM1182.07 163.234V164.698H1202.23V163.234H1193.01V158.194H1191.28V163.234H1182.07Z" fill="white"/>
</g>
<defs>
<filter id="filter0_d" x="553.617" y="638.642" width="151.379" height="82.538" filterUnits="userSpaceOnUse" color-interpolation-filters="sRGB">
<feFlood flood-opacity="0" result="BackgroundImageFix"/>
<feColorMatrix in="SourceAlpha" type="matrix" values="0 0 0 0 0 0 0 0 0 0 0 0 0 0 0 0 0 0 127 0"/>
<feOffset/>
<feGaussianBlur stdDeviation="2.5"/>
<feColorMatrix type="matrix" values="0 0 0 0 0 0 0 0 0 0 0 0 0 0 0 0 0 0 1 0"/>
<feBlend mode="normal" in2="BackgroundImageFix" result="effect1_dropShadow"/>
<feBlend mode="normal" in="SourceGraphic" in2="effect1_dropShadow" result="shape"/>
</filter>
<filter id="filter1_d" x="137.894" y="411.642" width="182.592" height="82.238" filterUnits="userSpaceOnUse" color-interpolation-filters="sRGB">
<feFlood flood-opacity="0" result="BackgroundImageFix"/>
<feColorMatrix in="SourceAlpha" type="matrix" values="0 0 0 0 0 0 0 0 0 0 0 0 0 0 0 0 0 0 127 0"/>
<feOffset/>
<feGaussianBlur stdDeviation="2.5"/>
<feColorMatrix type="matrix" values="0 0 0 0 0 0 0 0 0 0 0 0 0 0 0 0 0 0 1 0"/>
<feBlend mode="normal" in2="BackgroundImageFix" result="effect1_dropShadow"/>
<feBlend mode="normal" in="SourceGraphic" in2="effect1_dropShadow" result="shape"/>
</filter>
<filter id="filter2_d" x="1040.41" y="93.9495" width="166.814" height="78.844" filterUnits="userSpaceOnUse" color-interpolation-filters="sRGB">
<feFlood flood-opacity="0" result="BackgroundImageFix"/>
<feColorMatrix in="SourceAlpha" type="matrix" values="0 0 0 0 0 0 0 0 0 0 0 0 0 0 0 0 0 0 127 0"/>
<feOffset/>
<feGaussianBlur stdDeviation="2.5"/>
<feColorMatrix type="matrix" values="0 0 0 0 0 0 0 0 0 0 0 0 0 0 0 0 0 0 1 0"/>
<feBlend mode="normal" in2="BackgroundImageFix" result="effect1_dropShadow"/>
<feBlend mode="normal" in="SourceGraphic" in2="effect1_dropShadow" result="shape"/>
</filter>
<clipPath id="clip0">
<rect width="188" height="202" fill="white" transform="translate(554.119 313.53)"/>
</clipPath>
</defs>
</svg>
