<?xml version="1.0" encoding="utf-8"?>
<!-- Generator: Adobe Illustrator 24.1.2, SVG Export Plug-In . SVG Version: 6.00 Build 0)  -->
<svg version="1.1" id="레이어_1" xmlns="http://www.w3.org/2000/svg" xmlns:xlink="http://www.w3.org/1999/xlink" x="0px"
	 y="0px" viewBox="0 0 790 620" style="enable-background:new 0 0 790 620;" xml:space="preserve">
<style type="text/css">
	.st0{fill:#FFFFFF;}
</style>
<path class="st0" d="M5.41,316.24c0,1.01,0.43,1.94,1.15,2.61v11.32c0,1.25,0.67,2.42,1.77,3.06l162.34,93.75v23.8
	c0,0.99,0.42,1.94,1.14,2.59v11.96c0,1.26,0.67,2.44,1.77,3.08l165.27,95.43c0.56,0.32,1.17,0.48,1.77,0.48s1.22-0.16,1.77-0.48
	l32.65-18.85l118.74,68.55c0.55,0.32,1.17,0.47,1.78,0.47s1.22-0.15,1.78-0.47l113.62-65.62c1.1-0.64,1.78-1.81,1.78-3.08v-1.12
	l0.98,0.56c0.54,0.32,1.17,0.48,1.78,0.48c0.6,0,1.21-0.16,1.76-0.48l44.78-25.83c1.09-0.64,1.76-1.81,1.76-3.08v-1.03
	c0.74-0.67,1.17-1.6,1.17-2.63v-0.99c0-1.26-0.69-2.45-1.8-3.08l-4.28-2.45c0.19-0.45,0.3-0.93,0.3-1.41v-0.99
	c0-1.21-0.62-2.32-1.63-2.98l100.29-57.91c1.09-0.64,1.76-1.81,1.76-3.08v-11.25c0.74-0.67,1.17-1.62,1.17-2.64v-1.04
	c0.72-0.67,1.15-1.6,1.15-2.61v-0.99c0-1.26-0.68-2.44-1.77-3.08l-0.54-0.3v-17.41c1.08-0.64,1.75-1.81,1.75-3.06v-1.31
	c0-1.25-0.66-2.42-1.75-3.06v-0.25c0-0.85-0.3-1.67-0.85-2.29v-8.09l24.33-14.07c1.09-0.62,1.77-1.8,1.77-3.06v-5.95
	c0-0.96-0.39-1.89-1.09-2.55L578.95,158.64c-0.49-0.48-1.11-0.8-1.79-0.92L372.31,118.3c-0.21-0.04-0.44-0.07-0.66-0.07
	c-0.62,0-1.22,0.16-1.76,0.48l-5.13,2.93L211.58,33.22c-0.25-0.15-0.51-0.25-0.8-0.34L121.25,7.04c-0.33-0.09-0.66-0.14-0.98-0.14
	c-1.14,0-2.24,0.55-2.91,1.53L27.87,137.64c-0.41,0.59-0.63,1.3-0.63,2.02v5.97c0,1.26,0.67,2.44,1.76,3.07l17.71,10.24v49.32
	c0,1.01,0.43,1.95,1.17,2.62v11.96c0,1.26,0.67,2.44,1.77,3.07l35.59,20.53l0.19,0.11l14.01,8.07L76.1,268.1
	c-0.53-0.3-1.13-0.44-1.72-0.44c-0.62,0-1.22,0.16-1.77,0.48l-2.23,1.3c-0.53-0.3-1.12-0.45-1.72-0.45c-0.61,0-1.21,0.16-1.76,0.48
	l-2.25,1.28c-0.53-0.29-1.12-0.43-1.72-0.43c-0.62,0-1.22,0.16-1.77,0.47l-28.71,16.57c-1.1,0.64-1.77,1.81-1.77,3.07v0.98
	c0,0.89,0.34,1.76,0.94,2.4L6.05,308.54c-1.1,0.64-1.77,1.81-1.77,3.08v0.98c0,1.01,0.42,1.94,1.14,2.61L5.41,316.24L5.41,316.24z
	 M39.1,290.19c0.02,0.11,0.07,0.19,0.12,0.3c0.06,0.11,0.11,0.19,0.2,0.26c0.03,0.02,0.03,0.07,0.07,0.1l0.71,0.41v0.63l-0.85,0.48
	l-3.39-1.95l3.32-1.92c-0.02,0.02-0.02,0.07-0.03,0.09c-0.02,0.03-0.07,0.03-0.1,0.07c-0.02,0.03,0,0.07-0.01,0.11
	c-0.03,0.08-0.05,0.14-0.06,0.22c-0.01,0.03-0.04,0.07-0.04,0.11v0.98C39.05,290.13,39.09,290.16,39.1,290.19z M36.75,293.89
	l-0.49,0.27v-0.56L36.75,293.89z M36.39,296.13L36.39,296.13l2.56-1.49l0,0l0.85-0.49l0,0l1.73-0.99l0,0h0.01l1.4-0.84l0,0l0.87-0.5
	l0,0c0,0,0,0,0.01,0l3.16-1.81c0-0.01,0-0.02,0-0.02h0.01l0.85-0.51l0,0l28.7-16.58l30.42-17.55l0,0l1.4-0.83l0.28-0.15
	c0,0,0-0.01,0.01-0.02h0.02l10.32-5.96v0.02l3-1.73l0.12,0.07c0.15,0.09,0.3,0.13,0.46,0.13c0.16,0,0.32-0.04,0.46-0.13l0.12-0.07
	l15.15,8.76l-66.68,38.47c-0.01,0.01-0.01,0.02-0.02,0.03c-0.02,0.02-0.04,0.05-0.07,0.08c-0.09,0.07-0.12,0.15-0.17,0.24
	c-0.04,0.08-0.12,0.13-0.14,0.21c0,0.02-0.01,0.02-0.02,0.02c-0.01,0.03,0.02,0.07,0.02,0.1c0,0.02-0.03,0.05-0.03,0.08v5.98
	c0,0.1,0.07,0.16,0.11,0.25c0.03,0.11,0.05,0.21,0.12,0.3c0.07,0.1,0.17,0.13,0.28,0.18c0.07,0.04,0.12,0.12,0.21,0.15l18.8,3.6
	v53.27L9.58,311.62L36.39,296.13z M44.85,288.84c0.01,0.12,0.07,0.2,0.12,0.3l-1.58,0.9l-1.67-0.96l3.33-1.92
	c-0.02,0.01-0.01,0.06-0.03,0.07c-0.02,0.04-0.07,0.04-0.09,0.08c-0.02,0.03,0,0.08-0.02,0.11c-0.02,0.07-0.04,0.14-0.06,0.21
	c0,0.05-0.04,0.07-0.04,0.11v0.99C44.8,288.78,44.84,288.81,44.85,288.84z M615.51,536.21l-4.55-2.61l44-25.41l0.14-0.08l4.56,2.61
	L615.51,536.21z M659.38,513.91v0.94l-42.99,24.82v-0.96L659.38,513.91z M175.8,450.66L175.8,450.66l-0.7-0.4v-25.34v-13.91v-3.99
	v-0.66v-18.35l1.67,0.32v60.44c0,0.05,0.04,0.07,0.04,0.11c0.01,0.08,0.03,0.13,0.07,0.21c0.01,0.03-0.01,0.08,0.01,0.11
	s0.07,0.03,0.08,0.07c0.06,0.07,0.1,0.13,0.16,0.17c0.03,0.02,0.04,0.07,0.07,0.1l159.55,92.11c0.14,0.08,0.29,0.11,0.44,0.11
	c0.3,0,0.52-0.17,0.68-0.39c0.02-0.03,0.07-0.02,0.08-0.07c0.04-0.07,0.01-0.15,0.02-0.21c0.02-0.08,0.09-0.15,0.09-0.22v-0.66
	v-50.95l1.65,1.6v54.42L175.8,450.66z M339.74,547.36v11.86l-163.51-94.39v-11.86L339.74,547.36z M300.51,453.13l5.01,4.81
	l-116.53-67.27l5.01,0.96L300.51,453.13z M201.04,392.99l46.22,8.9l46.21,44.48L201.04,392.99z M310.85,463.06l25.46,24.5v51.12
	l-157.2-90.76v-59.16l4.55,0.88L310.85,463.06z M337.83,486.58L337.83,486.58l-0.01-0.02l0,0l-25.82-24.84l-10.35-9.94l0,0
	l-1.72-1.65l0,0l-51.63-49.7c-0.07-0.07-0.16-0.07-0.24-0.1c-0.07-0.03-0.12-0.11-0.21-0.13l-51.64-9.95l-1.75-0.34l-10.32-1.97
	l-5.75-1.12l0,0l-0.57-0.11l0,0l0,0l-3.45-0.64l0,0l-18.79-3.62v-2.22l91.68,15.69l92.48,89.02v3.5L337.83,486.58z M10.99,318.43
	l80.73,46.61c0.14,0.08,0.3,0.13,0.44,0.13c0.15,0,0.3-0.05,0.43-0.13l0.13-0.07l80.6,46.55v11.86L10.99,329.66V318.43z
	 M10.55,316.14L10.55,316.14l-0.7-0.42v-0.91l81.31,46.91c0.04,0.03,0.09,0.02,0.13,0.05v0.96L10.55,316.14z M93.18,363.19
	L93.18,363.19l-0.13-0.07v-2.49v-0.98c0-0.03-0.04-0.07-0.04-0.11c-0.01-0.07-0.02-0.13-0.06-0.21c-0.02-0.03,0.01-0.08-0.02-0.11
	c-0.02-0.03-0.07-0.05-0.1-0.08c-0.05-0.07-0.09-0.11-0.16-0.16c-0.03-0.02-0.03-0.07-0.07-0.08l-0.15-0.08V305.5l1.66,0.32v55.47
	c0,0.05,0.04,0.07,0.04,0.11c0.01,0.08,0.02,0.15,0.06,0.22c0.02,0.03-0.01,0.07,0.02,0.11c0.02,0.03,0.07,0.02,0.08,0.05
	c0.05,0.07,0.09,0.13,0.16,0.17c0.03,0.02,0.03,0.08,0.07,0.1l78.75,45.45v1.94L93.18,363.19z M96.5,360.45v-54.16l17.43,3.36
	l79.75,46.03l-3.39,1.97l-13.34-7.7c-0.03-0.03-0.07,0-0.11-0.02c-0.11-0.05-0.21-0.05-0.33-0.05c-0.11,0-0.21,0-0.32,0.03
	c-0.03,0.02-0.07,0-0.11,0.02l-0.57,0.32c-0.04,0.03-0.04,0.08-0.07,0.1c-0.07,0.07-0.11,0.11-0.17,0.16
	c-0.02,0.03-0.07,0.05-0.09,0.08c-0.02,0.03,0,0.08-0.02,0.11c-0.02,0.07-0.04,0.13-0.05,0.21c-0.01,0.05-0.05,0.08-0.05,0.13v15.4
	l-20.81,11.98c-0.01,0-0.01,0.02-0.02,0.02c-0.04,0.03-0.07,0.07-0.11,0.1c-0.07,0.07-0.1,0.16-0.15,0.24
	c-0.05,0.07-0.11,0.13-0.14,0.22c0,0.02-0.02,0.02-0.02,0.03c0,0.03,0.02,0.07,0.02,0.08c0,0.03-0.03,0.05-0.03,0.08v3.97
	c0,0.1,0.07,0.16,0.11,0.24c0.03,0.11,0.05,0.22,0.12,0.3c0.07,0.1,0.17,0.13,0.27,0.19c0.07,0.03,0.13,0.11,0.21,0.15l18.8,3.62
	v17.15L96.5,360.45z M385.72,464.49v-1.94l43.06,24.87l5.01,4.83L385.72,464.49z M439.1,497.37l42.12,40.51
	c0.02,0.03,0.07,0.02,0.1,0.05c0.03,0.02,0.03,0.07,0.07,0.08l9.88,5.69v44.68l-115.31-66.56v-50.67l8.87-5.13L439.1,497.37z
	 M386.28,460.2v-1.49c0-0.02,0-0.02,0-0.02c0-0.08-0.07-0.15-0.09-0.21c-0.02-0.08,0.01-0.16-0.02-0.22
	c-0.02-0.05-0.07-0.05-0.09-0.07c-0.02-0.05-0.02-0.1-0.05-0.13c-0.01,0-0.01,0-0.01,0l-92.95-89.45c-0.06-0.07-0.15-0.05-0.21-0.1
	c-0.08-0.03-0.13-0.1-0.21-0.13c-0.02,0-0.02-0.02-0.04-0.02l-92.84-15.88l-68.46-39.5l145.21,27.93l145.2,139.73L386.28,460.2z
	 M182.14,357.56l-0.21-0.13h-0.01c0,0,0,0-0.01,0l-0.48-0.25l0,0l-0.2-0.13c-0.01,0-0.01,0-0.02,0v-0.02l-0.18-0.1l0,0l0,0
	l-0.3-0.16l-0.34-0.21c0,0-0.01,0-0.02,0c0,0,0,0-0.01-0.02l-0.57-0.32c-0.07-0.03-0.15,0-0.22-0.02c-0.07-0.02-0.13-0.1-0.21-0.1
	c-0.04,0-0.07,0.05-0.11,0.05c-0.12,0.02-0.21,0.07-0.31,0.13c-0.11,0.07-0.18,0.11-0.25,0.21c-0.02,0.03-0.07,0.03-0.1,0.08
	c-0.04,0.07-0.01,0.15-0.02,0.22c-0.02,0.07-0.09,0.13-0.09,0.21v7.42l-1.65,0.96v-12.8l11.11,6.41l-1.66,0.96L182.14,357.56z
	 M184.04,361.24l-0.4,0.24v-0.47L184.04,361.24z M179.82,365.71L179.82,365.71l0.55-0.32l0,0l0.34-0.19c0,0,0,0,0.01,0
	c0-0.02,0.02,0,0.02-0.02l0.32-0.17V365c0.02-0.02,0.05,0,0.07-0.02c0.01-0.02,0.01-0.02,0.02-0.02c0.01-0.02,0.02-0.02,0.04-0.02
	l0.23-0.13c0.01-0.02,0.01-0.02,0.01-0.02c0.01,0,0.01,0,0.02,0l0.47-0.29l0.21-0.11l0.75-0.43c0.01-0.02,0.01-0.03,0.02-0.03
	c0.04-0.02,0.05-0.07,0.09-0.08c0.02-0.02,0.05-0.02,0.07-0.03c0.04-0.02,0.09-0.02,0.12-0.03l3.09-1.77c0,0,0,0,0-0.02l0,0
	l0.46-0.27l0,0l3.42-1.97l0.57-0.32c0,0,0,0,0.01,0l5.15-3l3.44-1.97v-0.02c0,0,0.01,0,0.02,0l0.29-0.17l90.24,15.44l-42.35,24.47
	l-90.24-15.46l19.12-11.01v-0.02L179.82,365.71z M197.11,353.69l-1.67,0.94l-76.18-43.98l5.01,0.97L197.11,353.69z M249.14,395.29
	l43.16-24.94l91.63,88.17l-43.16,24.94L249.14,395.29z M341.52,547.36l32.66-18.87v11.87l-32.66,18.85V547.36z M341.52,545.31
	v-54.27l1.67-0.98v50.16v0.66c0,0.08,0.07,0.15,0.08,0.22c0.03,0.07,0,0.15,0.03,0.21c0.02,0.05,0.07,0.03,0.08,0.07
	c0.16,0.21,0.39,0.39,0.68,0.39c0.16,0,0.3-0.03,0.44-0.11l29.66-17.13v1.94L341.52,545.31z M374.05,521.89l-29.07,16.8v-49.66
	l29.21-16.86v49.66L374.05,521.89z M343.63,487.75L343.63,487.75L343.63,487.75l-2.12,1.23v-3.91l42.67-24.65
	c-0.02,0.04-0.02,0.07-0.04,0.11c-0.02,0.02-0.07,0.02-0.09,0.07c-0.02,0.03,0,0.08-0.02,0.1c-0.02,0.08-0.04,0.15-0.06,0.22
	c0,0.05-0.04,0.07-0.04,0.13v3.46l-9.32,5.38L343.63,487.75z M375.95,528.49l118.73,68.56v11.86l-118.73-68.55
	C375.95,540.36,375.95,528.49,375.95,528.49z M375.95,526.46v-1.94l115.76,66.84c0.14,0.08,0.3,0.11,0.44,0.11
	c0.3,0,0.53-0.17,0.68-0.4c0.02-0.02,0.07,0,0.08-0.05c0.04-0.07,0.02-0.15,0.04-0.22c0.02-0.07,0.1-0.13,0.1-0.21v-0.67v-45.18
	l1.63,0.96v49.32L375.95,526.46z M492.59,542.42L492.59,542.42L492.59,542.42l-10.24-5.9L440.25,496l-10.32-9.94l0,0l0,0l-1.75-1.65
	L277.56,339.46c-0.07-0.07-0.16-0.07-0.24-0.1c-0.07-0.03-0.12-0.13-0.21-0.15l-150.63-28.98l0,0l-1.72-0.32l0,0l-10.33-2l0,0
	l-18.64-3.59l0,0l-0.6-0.11l0,0l-3.42-0.66l0,0l-18.8-3.6v-4.19l203.55,39.18L481.23,531.9c0.01,0.02,0.03,0.02,0.07,0.02
	c0.03,0.03,0.05,0.08,0.09,0.1c0,0,0,0.02,0.01,0.02l13.3,7.71v3.9L492.59,542.42z M482.52,530.64L399.85,349.3l161.6,93.3
	l-66.13,95.46L482.52,530.64z M634.76,456.52c0.01,0.11,0.07,0.19,0.11,0.3c0.07,0.1,0.11,0.19,0.21,0.25
	c0.03,0.03,0.03,0.08,0.07,0.1l1.3,0.74v22.33c0,0.05,0.04,0.07,0.04,0.11c0.02,0.11,0.07,0.21,0.13,0.3
	c0.06,0.1,0.11,0.19,0.19,0.25c0.03,0.03,0.03,0.08,0.07,0.1l7.25,4.22l-32.91,19.01V463.2l18.37,5.3c0.08,0.03,0.16,0.03,0.24,0.03
	c0.22,0,0.42-0.08,0.57-0.22c0.06-0.05,0.08-0.11,0.11-0.16c0.07-0.1,0.14-0.15,0.16-0.25c0.02-0.03-0.01-0.08,0-0.13
	c0-0.03,0.05-0.07,0.05-0.11v-5.97c0-0.05-0.05-0.07-0.05-0.11c-0.01-0.08-0.02-0.13-0.05-0.21c-0.03-0.07-0.08-0.13-0.12-0.19
	c-0.04-0.06-0.09-0.11-0.16-0.16c-0.03-0.03-0.03-0.07-0.08-0.1l-7.25-4.2l14.24-8.22v2.26l-0.39,0.24
	c-0.04,0.02-0.04,0.07-0.07,0.08c-0.07,0.07-0.1,0.1-0.16,0.16c-0.02,0.03-0.07,0.03-0.09,0.07c-0.03,0.05,0,0.08-0.02,0.13
	c-0.03,0.08-0.07,0.15-0.07,0.22c0,0.03-0.04,0.07-0.04,0.1v1.81l-1.3,0.74c-0.04,0.02-0.04,0.07-0.07,0.1
	c-0.07,0.05-0.11,0.1-0.16,0.16c-0.03,0.03-0.07,0.03-0.1,0.07c-0.02,0.05,0,0.08-0.02,0.13c-0.03,0.07-0.05,0.13-0.05,0.21
	c-0.02,0.05-0.06,0.07-0.06,0.11v1.33C634.71,456.45,634.75,456.48,634.76,456.52z M643.9,456.56v1.26l-5.67-3.27v-0.48v-0.79
	L643.9,456.56z M641.22,449.99v-3.75l0.96-0.56v4.87L641.22,449.99z M642.82,453.42c0.08,0.03,0.16,0.07,0.24,0.07
	c0.16,0,0.25-0.1,0.39-0.16v0.45L642.82,453.42z M643.9,462.2v20.82l-5.67-3.3v-20.79L643.9,462.2z M623.13,458.82l-60.05-17.34
	l-142.56-82.31l195.14,95.35l5.15,2.96l0,0L623.13,458.82z M496.46,597.06l111.87-64.57v1.11v0.99v2.98v6.76l-111.87,64.59
	C496.46,608.92,496.46,597.06,496.46,597.06z M496.46,595.01v-49.54l1.67-2.42v46.87v0.67c0,0.08,0.08,0.15,0.1,0.21
	c0.02,0.08,0,0.16,0.03,0.22c0.02,0.05,0.07,0.03,0.08,0.05c0.16,0.22,0.39,0.4,0.69,0.4c0.15,0,0.3-0.03,0.43-0.11l107.9-62.32
	c0.04,0,0.04-0.07,0.07-0.08c0.07-0.07,0.11-0.11,0.17-0.19c0.02-0.02,0.07-0.02,0.09-0.05c0.02-0.03,0-0.08,0.02-0.11
	c0.02-0.07,0.05-0.15,0.05-0.21c0.02-0.05,0.05-0.08,0.05-0.11v-63.6c0-0.08-0.06-0.13-0.08-0.21c-0.02-0.08,0.01-0.16-0.03-0.22
	c-0.02-0.05-0.07-0.05-0.1-0.08c-0.07-0.1-0.16-0.15-0.25-0.19c-0.1-0.07-0.18-0.13-0.3-0.15c-0.03,0-0.07-0.03-0.11-0.03
	c-0.08,0-0.15,0.05-0.21,0.08c-0.08,0.02-0.16-0.02-0.22,0.03l-0.57,0.32l0,0l0,0l-88.61,51.14l2.22-3.21l84.94-49.06
	c0.02,0,0.02-0.02,0.03-0.02c0.17-0.13,0.32-0.27,0.37-0.48c0-0.02,0-0.02,0-0.02c0.03-0.1-0.02-0.21-0.02-0.3
	c-0.01-0.13,0.02-0.25-0.05-0.37c0,0,0.01-0.02,0-0.02c-0.06-0.1-0.16-0.11-0.24-0.17c-0.09-0.08-0.15-0.19-0.27-0.22l-0.75-0.22
	l0,0v-0.02l-40.63-11.72l0.17-0.24l46.37,13.37v43.07v0.99v2.99v7.97v0.99v2.96v7.3v0.82l-0.12,0.07c0,0.02,0,0.02-0.01,0.02h-0.02
	l-0.55,0.34L496.46,595.01z M499.9,588.37v-47.89l15.03-21.69l90.52-52.25v60.91L499.9,588.37z M542.94,486.15
	c0.02,0.11,0.07,0.19,0.13,0.3c0.06,0.1,0.1,0.19,0.19,0.25c0.03,0.03,0.03,0.07,0.07,0.1l0.57,0.34c0.15,0.1,0.3,0.15,0.47,0.15
	c0.16,0,0.3-0.05,0.44-0.13l17.23-9.94c0.03-0.03,0.03-0.08,0.08-0.1c0.08-0.08,0.14-0.16,0.2-0.27c0.06-0.1,0.11-0.17,0.12-0.29
	c0.01-0.05,0.05-0.08,0.05-0.11v-23.86c0-0.03-0.04-0.07-0.05-0.1c-0.02-0.08-0.03-0.15-0.06-0.21c-0.02-0.05,0.01-0.1-0.02-0.13
	s-0.07-0.03-0.09-0.08c-0.06-0.07-0.1-0.1-0.16-0.15c-0.03-0.03-0.04-0.08-0.08-0.1l-0.48-0.29l0.3-0.43l39.18,11.28l-78.39,45.27
	l20.24-29.21v7.6C542.89,486.08,542.94,486.11,542.94,486.15z M547,480.63c0.02,0.08-0.01,0.15,0.02,0.22
	c0.02,0.02,0.07,0.02,0.1,0.05c0.16,0.22,0.38,0.39,0.67,0.39c0.16,0,0.3-0.03,0.45-0.11l10.34-5.97c0.04-0.02,0.04-0.07,0.08-0.1
	c0.07-0.05,0.11-0.11,0.16-0.19c0.03-0.03,0.08-0.02,0.1-0.05s0-0.08,0.02-0.11c0.03-0.08,0.04-0.13,0.05-0.21
	c0.01-0.05,0.05-0.07,0.05-0.11v-15.9c0-0.08-0.07-0.15-0.1-0.22c-0.02-0.07,0.02-0.15-0.03-0.22c-0.02-0.03-0.06-0.03-0.08-0.07
	c-0.08-0.1-0.17-0.15-0.27-0.21c-0.1-0.05-0.17-0.1-0.3-0.11c-0.04-0.02-0.07-0.07-0.12-0.07c-0.08,0-0.15,0.08-0.21,0.1
	c-0.08,0.03-0.16,0-0.22,0.03l-0.57,0.32l-0.22,0.15l2.23-3.23l1.56-0.89v21.81l-15.45,8.93v-9.79l1.67-2.42v7.11v0.64
	C546.91,480.5,546.97,480.55,547,480.63z M562.97,447.44c-0.07-0.03-0.13,0.03-0.19,0.02c-0.13,0-0.22,0-0.34,0.05
	c-0.11,0.03-0.17,0.1-0.25,0.16c-0.07,0.05-0.15,0.05-0.18,0.11l-1.26,1.78l0,0c0,0.02,0,0.02,0,0.02l-2.19,3.19l0,0l-0.76,1.07l0,0
	l0,0l-4.57,6.61l-0.22,0.29c-0.02,0.02-0.01,0.03-0.02,0.05c-0.02,0.02-0.03,0.02-0.05,0.03l-0.19,0.32l-0.82,1.17v0.02l-0.84,1.17
	c0,0,0,0,0,0.02c-0.02,0-0.02,0-0.02,0l-0.8,1.17l0,0c0,0-0.01,0-0.01,0.02l-0.8,1.17l0,0l-0.82,1.17l-0.83,1.19l0,0l0,0l-0.57,0.85
	h-0.01l-0.17,0.25l0,0l-3.44,4.96l0,0l-0.57,0.82l0,0l-24.11,34.78c0,0.02-0.01,0.02-0.01,0.02l-0.77,1.11l0,0l-4.58,6.62
	l-15.31,22.08l-1.83,2.64v-2.86l66.63-96.17l65.86,19.02v4.1l-17.61-5.08l0,0h-0.02l0,0l-0.73-0.21c-0.02,0-0.02-0.02-0.02-0.02
	L562.97,447.44z M611.23,527.42v-5.26l38-21.93l0,0h0.02l0.12-0.08l0.69,0.4l3.83,2.22L611.23,527.42z M653.62,505.96v0.94
	l-42.97,24.82v-0.59l0.13-0.07c0.03-0.02,0.04-0.08,0.08-0.1c0.1-0.08,0.15-0.16,0.2-0.25c0.04-0.08,0.12-0.15,0.13-0.22
	L653.62,505.96z M611.23,520.11v-0.91l36.67-21.17v0.93L611.23,520.11z M649.81,498.36c-0.04-0.02-0.09,0-0.13-0.02l0,0V497
	l0.71-0.42c0.03-0.02,0.03-0.07,0.07-0.1c0.1-0.07,0.15-0.16,0.2-0.25c0.05-0.09,0.11-0.19,0.12-0.3c0.01-0.05,0.05-0.07,0.05-0.11
	v-0.99c0-0.03-0.04-0.07-0.05-0.11c0-0.08-0.03-0.15-0.06-0.21c-0.01-0.05,0.01-0.08-0.01-0.11c-0.03-0.05-0.08-0.05-0.1-0.08
	c-0.05-0.07-0.1-0.11-0.16-0.16c-0.03-0.02-0.03-0.07-0.07-0.1l-5.56-3.21l110.36-63.75v11.2L650.5,498.74L649.81,498.36z
	 M648.16,494.82l-36.93,21.35v-5.93l31.83-18.37L648.16,494.82z M610.1,536.11l4.52,2.61v0.96l-4.52-2.63V536.11z M755.66,424.79
	v0.02c-0.01,0-0.02,0-0.02,0l-113.01,65.28l-31.4,18.11v-0.94l145.15-83.79v0.93L755.66,424.79z M651.35,453.29v0.79v0.48
	l-5.68,3.28v-1.28L651.35,453.29z M645.67,454.03v-1.33c0,0.03,0.02,0.08,0.04,0.11c0.02,0.08,0,0.16,0.03,0.22
	c0.02,0.03,0.07,0.02,0.09,0.05c0.16,0.22,0.38,0.4,0.68,0.4c0.07,0,0.13-0.03,0.19-0.05L645.67,454.03z M647.4,450.55v-7.9
	l0.95-0.54v7.89L647.4,450.55z M650.31,451.35c0.03-0.03,0.03-0.07,0.04-0.1c0.02-0.03,0.07-0.02,0.08-0.05
	c0.02-0.03,0-0.08,0.02-0.11c0-0.03,0.03-0.03,0.04-0.07v0.21L650.31,451.35z M651.35,458.94v12.87v0.99v2.64v4.28l-5.68,3.3v-20.82
	L651.35,458.94z M695.83,426.59v1.28l-5.69-3.28v-0.5v-0.79L695.83,426.59z M693.15,420.01v-0.98v-0.5v-2.31l0.96-0.54v4.87
	L693.15,420.01z M694.78,423.43c0.08,0.02,0.15,0.07,0.22,0.07c0.16,0,0.26-0.1,0.39-0.17v0.47L694.78,423.43z M692.82,450.4v0.59
	l-0.71,0.4l-38.98,22.5v-0.59L692.82,450.4z M654.8,454.96v-0.02l37.75-21.78v0.1l-0.86,0.5l0,0c0,0.02-0.02,0-0.02,0.02l-0.85,0.5
	l0,0l-0.85,0.47c0,0,0,0.02-0.02,0.02h-0.01l-0.27,0.16l-0.85,0.5c0,0.02,0,0.02-0.01,0.02h-0.01l-0.85,0.5l-0.25,0.13
	c-0.01,0-0.01,0.02-0.02,0.03c-0.02,0-0.03,0-0.04,0l-0.83,0.5l-0.88,0.5l0,0c-0.01,0.02-0.01,0-0.02,0.02l-0.27,0.16l-0.85,0.48
	l-0.86,0.5v0.02h-0.02l-0.25,0.16l-0.85,0.48h-0.01l-0.86,0.5c-0.02,0.02-0.02,0.02-0.02,0.03c-0.02,0-0.02,0-0.02,0l-0.23,0.15
	l-0.87,0.5l-0.87,0.5c-0.02,0-0.02,0.02-0.03,0.02c-0.01,0.02-0.02,0-0.03,0.02l-0.24,0.16l-0.86,0.39c-0.01,0-0.01,0-0.01,0
	s0,0-0.02,0.02l-0.85,0.5l0,0l-0.28,0.16c0,0,0,0-0.01,0.02c0,0,0-0.02,0,0l-0.84,0.48c-0.01,0-0.01,0-0.01,0l-0.87,0.5
	c0,0,0,0-0.01,0l-0.25,0.15c0,0,0,0-0.01,0.02c-0.01,0-0.02,0-0.02,0l-0.87,0.51l-0.83,0.48l0,0l-0.3,0.17v0.02l-0.84,0.45
	c-0.02,0.02-0.02,0.02-0.02,0.02h-0.02l-0.84,0.51l-0.27,0.15c-0.02,0-0.02,0.02-0.02,0.02h-0.02l-0.86,0.51l-0.84,0.47l0,0
	l-0.3,0.17c-0.02,0,0,0-0.02,0.02l0,0l-0.84,0.48l0,0l0,0l-0.86,0.53l-0.25,0.11c-0.01,0-0.01,0.02-0.02,0.02
	c-0.01,0.02-0.02,0-0.04,0.02l-0.84,0.48c0,0,0,0,0,0.02l-0.86,0.5l-0.29,0.16l0,0l0,0l-0.86,0.5c0,0,0,0,0,0.02l-0.85,0.48
	c-0.01,0-0.01,0-0.01,0s0,0.02-0.01,0.02l-0.26,0.15l-0.85,0.5l0,0l-0.87,0.5c-0.01,0.02-0.01,0.02-0.02,0.02c-0.01,0-0.01,0-0.02,0
	l-0.22,0.15l-0.88,0.51l0,0l-0.86,0.5l0,0h-0.01l-0.26,0.16l-0.85,0.5l0,0l-0.88,0.5c-0.02,0-0.02,0.02-0.02,0.02
	c-0.02,0.02-0.02,0-0.04,0.02l-0.24,0.15l-0.85,0.48v0.02c-0.02,0-0.02,0-0.02,0l-0.82,0.48l-0.24,0.13
	c-0.02,0.02-0.02,0.02-0.03,0.03c-0.02,0-0.03,0-0.05,0l-0.69,0.42C654.83,455.01,654.8,454.99,654.8,454.96z M692.54,453.19
	l3.54,2.04l-42.95,24.79v-4.07L692.54,453.19z M694.55,448.75c-0.02-0.08-0.03-0.13-0.07-0.21c-0.02-0.05,0-0.1-0.02-0.13
	c-0.02-0.03-0.07-0.03-0.1-0.07c-0.05-0.08-0.09-0.11-0.15-0.16c-0.05-0.03-0.05-0.08-0.07-0.1l-0.85-0.5
	c-0.04-0.02-0.08,0-0.11-0.02c-0.07-0.03-0.13-0.05-0.2-0.07v-12.48l0.86-0.48c0.04-0.02,0.04-0.08,0.08-0.1
	c0.09-0.08,0.14-0.16,0.19-0.25c0.07-0.11,0.12-0.19,0.14-0.3c0-0.05,0.03-0.07,0.03-0.13v-1.67c0.03-0.02,0.03-0.03,0.05-0.07
	c0.1-0.07,0.14-0.16,0.19-0.25c0.04-0.08,0.13-0.13,0.15-0.21l1.14,0.67v20.79l-1.54-0.88c0.07-0.07,0.09-0.16,0.14-0.24
	c0.05-0.1,0.11-0.19,0.11-0.3c0.02-0.03,0.06-0.07,0.06-0.1v-2.64C694.59,448.82,694.55,448.8,694.55,448.75z M690.97,429.76
	l1.09,0.62l-38.93,22.48v-1.12c0-0.03-0.05-0.07-0.05-0.11l36.61-21.14l0,0h0.02L690.97,429.76z M689.22,420.77l-0.43,0.24
	c-0.02,0.03-0.04,0.08-0.07,0.1c-0.06,0.05-0.1,0.1-0.15,0.16c-0.03,0.03-0.07,0.03-0.1,0.07c-0.02,0.05,0,0.1-0.02,0.13
	c-0.03,0.08-0.05,0.13-0.07,0.22c0,0.03-0.04,0.05-0.04,0.1v1.8l-1.28,0.76c-0.04,0.02-0.04,0.07-0.07,0.1
	c-0.07,0.05-0.11,0.1-0.16,0.16c-0.03,0.02-0.07,0.03-0.1,0.07c-0.02,0.03,0,0.08-0.02,0.13c-0.03,0.07-0.05,0.13-0.05,0.21
	c-0.02,0.05-0.06,0.07-0.06,0.11v1.31c0,0.05,0.04,0.07,0.06,0.11c0,0.11,0.07,0.19,0.11,0.3c0.07,0.1,0.11,0.19,0.21,0.25
	c0.03,0.03,0.03,0.08,0.07,0.1l1.28,0.74v1.3l-36.08,20.83v-10.21l36.96-21.35V420.77z M703.29,423.3v0.79v0.5l-5.7,3.28v-1.28
	L703.29,423.3z M697.6,424.04v-1.3c0.01,0.03,0.02,0.07,0.04,0.08c0.02,0.08-0.02,0.16,0.02,0.22c0.02,0.03,0.07,0.02,0.08,0.05
	c0.16,0.22,0.39,0.4,0.68,0.4c0.08,0,0.17-0.05,0.25-0.07L697.6,424.04z M699.32,420.56v-7.89l0.96-0.54v6.41v0.5v0.98
	L699.32,420.56z M702.23,421.38c0.02-0.03,0.02-0.08,0.04-0.1c0.03-0.03,0.08-0.02,0.09-0.05c0.02-0.05,0-0.1,0.02-0.13
	c0.01-0.03,0.04-0.03,0.05-0.07v0.22L702.23,421.38z M703.29,428.93v12.88v0.99v2.64v4.29l-5.7,3.28v-20.79L703.29,428.93z
	 M721.94,404.73l1.16,0.67l0,0l0,0l0.88,0.5l0,0l1.13,0.66h0.01c0,0,0,0,0,0.02l0.88,0.48l0,0l0.37,0.22l-22.16,12.81v-10.21
	l13.33-7.7l0.41,0.22l0,0l1.14,0.67l0,0c0.02,0,0,0,0.02,0l0.86,0.5h0.01l1.13,0.66l0,0v0.02L721.94,404.73z M740.29,392.95v0.64
	l-0.54,0.32l-3.96-2.29l1.1-0.62L740.29,392.95z M738.65,389.96l2.5-1.43v2.24l-0.42,0.24c-0.03,0.02-0.03,0.07-0.08,0.1l0,0
	L738.65,389.96z M736.02,403.75L736.02,403.75c0.02-0.02,0.03-0.02,0.03-0.02l0.82-0.48l0.88-0.5c0,0,0-0.02,0.02-0.02
	c0.01-0.02,0.02-0.02,0.03-0.02l0.21-0.15l0.88-0.5l0.88-0.5c0,0,0-0.02,0.02-0.02c0,0,0.02,0,0.02,0l0.21-0.16l0.88-0.48
	c0,0,0,0,0-0.02h0.02l0.68-0.4c0,0,0,0,0.01,0l1.3-0.74l1.09,0.62l-38.93,22.47v-1.09c0-0.05-0.04-0.07-0.05-0.11
	c0-0.02,0.01-0.02,0-0.03l23.53-13.57l0,0l0.29-0.16c0,0,0-0.02,0.01-0.02c0.01,0,0.02,0,0.02,0l0.84-0.51l0.27-0.15l0,0
	c0.01,0,0.02,0,0.02,0l0.88-0.5c0,0,0-0.02,0.02-0.02h0.02l0.79-0.48l0.29-0.15c0.01-0.02,0.02-0.02,0.02-0.03
	c0.02,0,0.03,0,0.05-0.02l0.8-0.48l0.86-0.47c0.02-0.02,0.02-0.02,0.02-0.03c0.01,0,0.02,0,0.03,0l0.26-0.16l0.85-0.5l0,0h0.01
	l0.83-0.5L736.02,403.75z M747.76,396.6v1.28l-5.69-3.28v-0.5v-0.79L747.76,396.6z M745.07,390.05v-3.8l0.97-0.56v4.91
	L745.07,390.05z M746.63,393.43c0.1,0.03,0.19,0.08,0.3,0.08c0.16,0,0.26-0.1,0.39-0.16v0.47L746.63,393.43z M744.74,420.42v0.57
	l-0.7,0.42l-38.97,22.5v-0.59L744.74,420.42z M706.74,424.99c0,0,0.01-0.02,0.01-0.03l37.72-21.78v0.13l-0.85,0.48l0,0l-0.89,0.48
	v0.02h-0.02l-0.82,0.5l-0.25,0.11c-0.02,0.02-0.02,0.03-0.03,0.03c-0.01,0.02-0.02,0-0.05,0.02l-0.84,0.5l-0.85,0.5
	c0,0.02,0,0.02-0.01,0.02h-0.01l-0.28,0.17l-0.84,0.45c0,0,0,0.02-0.02,0.02h-0.01l-0.85,0.51l-0.27,0.13
	c-0.02,0.02-0.02,0.03-0.03,0.03c0,0-0.01,0-0.02,0l-0.8,0.5l-0.87,0.48c-0.02,0-0.02,0-0.02,0c-0.02,0.02-0.02,0-0.02,0l-0.27,0.17
	l-0.85,0.48c0,0,0,0.02-0.02,0.02l0,0l-0.85,0.5l-0.26,0.15c-0.01,0-0.01,0.02-0.02,0.02c0,0.02-0.02,0-0.02,0.02l-0.83,0.48
	c-0.01,0-0.01,0-0.01,0l-0.87,0.5c-0.01,0-0.01,0.02-0.02,0.02h-0.02l-0.22,0.16l-0.88,0.48l0,0l-0.87,0.51
	c-0.01,0-0.01,0-0.01,0.02h-0.01l-0.25,0.16l-0.86,0.48l-0.85,0.5c-0.01,0-0.01,0.02-0.02,0.02c0,0,0,0-0.01,0l-0.26,0.16
	l-0.85,0.48l0,0l-0.88,0.5c0,0.02,0,0.03-0.02,0.03c-0.01,0-0.02,0-0.03,0l-0.21,0.15l-0.88,0.5l0,0c-0.01,0-0.02,0-0.02,0
	l-0.82,0.5c-0.02,0-0.02,0-0.02,0l-0.3,0.16l0,0l-0.85,0.5l-0.85,0.5l-0.29,0.15c0,0.02,0,0.02-0.01,0.02l0,0l-0.89,0.51l0,0h-0.01
	l-0.82,0.5l-0.28,0.15c-0.01,0-0.01,0.02-0.01,0.02s-0.01,0-0.02,0l-0.83,0.48l0,0h-0.01l-0.87,0.51l-0.25,0.13
	c-0.02,0.02-0.02,0.02-0.03,0.03c-0.02,0-0.03,0-0.05,0l-0.81,0.51l-0.86,0.47c-0.01,0.02-0.01,0.02-0.02,0.02h-0.01l-0.28,0.16
	l-0.85,0.5c0,0,0,0.02-0.01,0.02c-0.01,0-0.01,0-0.01,0l-0.85,0.5l-0.27,0.15c0,0,0,0-0.02,0.02l0,0l-0.85,0.48l0,0l-0.88,0.5
	c-0.01,0-0.01,0.02-0.01,0.02c-0.02,0.02-0.02,0-0.02,0.02l-0.24,0.15l-0.86,0.5l0,0l-0.86,0.48v0.02h-0.02l-0.27,0.16l-0.85,0.5
	l-0.88,0.5c0,0.02,0,0.02,0,0.02c-0.02,0-0.02,0-0.02,0l-0.25,0.16l-0.69,0.4C706.77,425.04,706.74,425.02,706.74,424.99z
	 M744.5,423.21l3.53,2.04l-42.94,24.79v-4.07L744.5,423.21z M746.48,418.77c-0.02-0.08-0.02-0.15-0.07-0.22
	c-0.02-0.03,0.01-0.08-0.02-0.11c-0.02-0.03-0.07-0.03-0.08-0.07c-0.07-0.08-0.11-0.11-0.16-0.16c-0.05-0.03-0.05-0.08-0.08-0.1
	l-0.87-0.51c-0.04-0.02-0.09,0-0.12-0.02c-0.05-0.02-0.08-0.05-0.15-0.07v-12.46l0.85-0.5c0.04-0.02,0.04-0.07,0.07-0.08
	c0.1-0.08,0.15-0.17,0.2-0.27c0.05-0.1,0.11-0.17,0.12-0.29c0.02-0.05,0.05-0.08,0.05-0.11v-1.68c0.03-0.02,0.03-0.05,0.06-0.07
	c0.09-0.08,0.14-0.16,0.2-0.27c0.05-0.07,0.11-0.13,0.15-0.21l1.12,0.66v20.8l-1.53-0.89c0.07-0.07,0.08-0.15,0.13-0.22
	c0.06-0.1,0.11-0.19,0.12-0.3c0.02-0.05,0.05-0.07,0.05-0.11v-2.63C746.52,418.83,746.49,418.8,746.48,418.77z M755.19,393.33v0.77
	v0.5l-5.66,3.27v-1.26L755.19,393.33z M749.53,394.07v-1.31c0.01,0.03,0.02,0.05,0.04,0.08c0.02,0.08-0.02,0.16,0.02,0.22
	c0.02,0.03,0.07,0.02,0.08,0.05c0.16,0.22,0.39,0.4,0.68,0.4c0.11,0,0.2-0.05,0.29-0.08L749.53,394.07z M751.25,390.59v-7.89
	l0.96-0.54v6.41v0.5v0.99L751.25,390.59z M754.02,391.47c0,0,0,0,0-0.02c0.03-0.02,0.05,0,0.07-0.02L754.02,391.47z M754.36,391.02
	v0.25l-0.21,0.13c0.03-0.05,0.02-0.1,0.05-0.13c0.02-0.03,0.08-0.02,0.09-0.07c0.02-0.03,0-0.08,0.02-0.11
	C754.31,391.07,754.35,391.07,754.36,391.02z M754.36,390.9L754.36,390.9v0.03C754.36,390.92,754.36,390.91,754.36,390.9z
	 M755.19,398.94v20.01v0.82l-5.66,3.28v-20.8L755.19,398.94z M780.45,363.76l-25.64,14.83c0,0,0,0-0.01,0.02l-1.72,0.99
	c0,0,0,0-0.01,0h-0.01l-0.42,0.27l0,0l-2.72,1.54l0,0l0,0l-1.7,0.99l-0.45,0.22c0,0.02,0,0.02,0,0.02h-0.02l-1.26,0.75l-2.72,1.57
	c-0.01,0-0.01,0-0.01,0l-0.44,0.24c0,0.02,0,0.02,0,0.02h-0.02l-1.27,0.74c0,0,0,0,0,0.02c-0.01,0-0.01-0.02-0.01,0l-0.43,0.25
	l-5.17,2.96l-2.87,1.65l0,0c0,0,0,0-0.02,0l-0.81,0.5l-0.75,0.42c0,0,0,0.02-0.02,0.02c0,0,0,0-0.02,0l-0.82,0.5l0,0l-0.29,0.16
	c-0.01,0-0.01,0-0.02,0c0,0,0,0-0.02,0l-0.8,0.48l-0.88,0.5c-0.01,0.02-0.01,0.02-0.02,0.02c-0.01,0.02-0.02,0-0.02,0.02l-0.25,0.13
	l-0.84,0.48c-0.01,0-0.01,0-0.02,0.02h-0.02l-0.84,0.5l-0.25,0.13c-0.02,0.02-0.02,0.03-0.03,0.03c-0.02,0-0.03,0-0.05,0l-0.8,0.51
	l-0.88,0.5l0,0l-0.25,0.15l0,0c-0.02,0-0.03,0-0.03,0l-0.85,0.51l-0.88,0.5c0,0,0,0.02-0.02,0.02c-0.01,0.02-0.02,0-0.03,0.02
	l-0.22,0.15l-0.85,0.47c0,0,0,0.02-0.02,0.02l0,0l-0.86,0.5c-0.03,0.02-0.03,0.07-0.08,0.08c-0.02,0.03-0.08,0.03-0.11,0.07
	c-0.01,0-0.01,0-0.01,0c-0.02,0-0.03,0-0.05,0c-0.01,0-0.01,0-0.02,0.02c-0.01,0-0.02,0-0.03,0l-0.85,0.5h-0.01l-0.86,0.5
	c-0.02,0-0.02,0-0.02,0.02c-0.02,0-0.02,0-0.03,0l-0.23,0.15l-0.86,0.5c-0.01,0-0.01,0.02-0.01,0.02h-0.01l-0.85,0.51l-14.2,8.19
	l-1.72,0.98c0,0,0,0.02-0.01,0.02l0,0l-0.43,0.24l0,0l-2.73,1.57l0,0l0,0l-1.72,0.99c0,0,0,0,0,0.02l-0.42,0.22c0,0,0,0-0.02,0l0,0
	l-1.28,0.75l-2.73,1.57l0,0l-0.43,0.25c0,0,0,0-0.01,0l-1.28,0.74l-0.43,0.25l0,0c-0.01,0-0.01,0-0.01,0l-38.73,22.38l-1.71,0.94
	v0.02h-0.01l-0.42,0.24h-0.01l-2.73,1.55l0,0l-1.72,1.01l-0.43,0.24c-0.02,0-0.02,0.02-0.02,0.02l0,0l-1.28,0.74l-2.72,1.58l0,0
	l-0.42,0.24c0,0,0,0-0.01,0l0,0l-1.3,0.76l-0.44,0.24l0,0l0,0l-16.46,9.5l-3.41-1.95l162.6-93.89L780.45,363.76L780.45,363.76z
	 M616.04,452.73L398.28,346.36c-0.01-0.02-0.02,0-0.04-0.02c-0.11-0.05-0.21-0.02-0.31-0.02c-0.09,0-0.2-0.05-0.29-0.02
	c-0.02,0-0.04,0.02-0.07,0.03c-0.02,0-0.04-0.02-0.04,0c-0.1,0.03-0.13,0.13-0.2,0.21c-0.07,0.05-0.16,0.07-0.21,0.16
	c0,0,0,0,0,0.02c-0.01,0.02-0.02,0.02-0.02,0.03c-0.01,0.02,0,0.03,0,0.05c-0.04,0.1-0.02,0.19-0.02,0.3
	c-0.01,0.1-0.05,0.19-0.02,0.29c0.01,0.03,0.02,0.03,0.03,0.07c0.01,0.02-0.01,0.03,0,0.05l82,179.91L278.4,334.32L576.37,162.3
	l203.51,195.86L616.04,452.73z M276.79,333.21L74.58,294.29l65.94-38.05L181,232.86l4.97-2.89l290.67-12.9h0.03
	c0.25-0.02,0.48-0.15,0.64-0.32c0-0.01,0.01-0.01,0.01-0.01c0.02-0.02,0.02-0.06,0.02-0.09c0.02-0.02,0.05-0.02,0.07-0.03
	c0.05-0.07,0.01-0.16,0.03-0.23c0.02-0.09,0.09-0.16,0.08-0.25c0,0-0.02-0.02-0.02-0.03c0-0.03-0.02-0.05-0.02-0.09
	c-0.02-0.11-0.08-0.17-0.14-0.26c-0.05-0.08-0.07-0.17-0.13-0.22c-0.02-0.02-0.02-0.03-0.02-0.05l-110.9-89.64l5.49-3.14L574,161.61
	L276.79,333.21z M108.68,240.94c-0.03-0.03-0.09,0-0.13-0.02v-1.98l2.12,1.21v0.02l9.57,5.51l-1.67,0.98L108.68,240.94z
	 M116.79,247.67l-7.67,4.43v-0.12v-0.08v-0.09v-5.04v-0.12v-0.11v-0.85v-2.45L116.79,247.67z M112.57,238.54v-3.46v-34.79
	c0-0.05-0.04-0.08-0.05-0.12c-0.01-0.08-0.02-0.14-0.06-0.21c-0.02-0.04,0.01-0.08-0.02-0.12c-0.02-0.03-0.07-0.04-0.1-0.08
	c-0.05-0.05-0.09-0.11-0.16-0.16c-0.03-0.03-0.03-0.07-0.07-0.1L84,183.28c-0.03-0.02-0.07,0-0.11-0.02
	c-0.11-0.04-0.21-0.04-0.34-0.04c-0.11,0-0.21,0-0.31,0.04c-0.03,0.02-0.08-0.01-0.11,0.02l-0.57,0.31
	c-0.04,0.03-0.04,0.08-0.07,0.11c-0.07,0.04-0.11,0.09-0.16,0.16c-0.02,0.02-0.07,0.02-0.1,0.07c-0.02,0.03,0,0.07-0.02,0.11
	c-0.02,0.08-0.04,0.13-0.06,0.21c0,0.05-0.04,0.08-0.04,0.12v36.56L55.15,205.4v-44.65l123.63,71.35l-38.71,22.33l-16.49-9.52
	L112.57,238.54z M467.27,209.76L127.02,13.31l82.44,23.8l154.76,89.36L467.27,209.76z M473.57,215.44l-287.63,12.77L32.06,139.37
	l88.48-127.75L473.57,215.44z M183.94,229.11l-3.39,1.95L54.71,158.43l0,0l-0.55-0.34h-0.01c0,0,0,0-0.01,0l-3.44-1.98l0,0
	l-19.03-11.01v-3.92L183.94,229.11z M51.14,158.42l1.67,0.95v46.9c0,0.04,0.04,0.07,0.05,0.11c0.01,0.09,0.03,0.15,0.07,0.22
	c0.01,0.04-0.01,0.09,0.02,0.12c0.02,0.03,0.06,0.02,0.08,0.05c0.05,0.07,0.1,0.12,0.16,0.17c0.03,0.03,0.03,0.07,0.07,0.11
	l29.29,16.88l0,0l3,1.73v1.93l-33.69-19.44l0,0l-0.71-0.42V158.42z M52.3,210.45l33.69,19.43c0.04,0.02,0.09,0.02,0.12,0.02v3.5v8.4
	l-33.82-19.51L52.3,210.45L52.3,210.45z M86.03,189.63c-0.11,0.06-0.2,0.11-0.28,0.2c-0.02,0.03-0.07,0.04-0.09,0.08
	c-0.04,0.07-0.02,0.15-0.03,0.22c-0.02,0.07-0.09,0.13-0.09,0.21v2.32v0.04v0.43v0.17v0.66v0.06v0.5v0.17v0.7v0.68v1.01v5.09v0.42
	v1.27v2.7v0.51v0.17v0.66v15.67l-1.67-0.96v-0.15v-36.57l26.34,15.22v4.96v0.07v2.26v0.05v17.13v0.05v2.27v0.05v7.42v2.45
	l-1.67-0.98v-5.5c0-0.02,0.01-0.02,0.01-0.03c0-0.01-0.01-0.02-0.01-0.02v-0.23v-4.47v-0.17v-0.61v-0.04v-0.05v-0.4v-0.02v-0.15
	v-0.37v-11.64c0-0.02,0.01-0.02,0.01-0.03c0-0.01-0.01-0.01-0.01-0.02v-0.25v-4.49v-0.17v-0.59c0,0,0.01,0,0.01-0.02
	s-0.01-0.02-0.01-0.03v-0.05v-4.92c0-0.04-0.04-0.07-0.04-0.11c-0.02-0.11-0.07-0.19-0.12-0.3c-0.06-0.11-0.11-0.2-0.2-0.26
	c-0.03-0.02-0.03-0.08-0.07-0.1l-2.84-1.65c-0.01,0-0.02,0-0.04,0v-0.01l-0.02-0.01c0-0.01,0-0.01,0-0.01h-0.01l-0.22-0.13
	c0,0-0.01,0-0.02,0c0-0.01,0-0.02-0.01-0.02l-0.25-0.15l-0.11-0.07c-0.02-0.02-0.03,0-0.06-0.02c-0.02,0-0.02-0.03-0.03-0.03
	l-0.07-0.04l-0.09-0.06c-0.01-0.01-0.02,0-0.03,0c0-0.01,0-0.01,0-0.02l-3.06-1.79c-0.02,0-0.03,0-0.04,0l-0.23-0.16
	c-0.01-0.01-0.02,0-0.03-0.01c-0.02-0.01-0.01-0.01-0.02-0.02l-0.28-0.15l-0.12-0.09c-0.01,0-0.02,0.01-0.02,0c0,0,0-0.02-0.01-0.02
	l-0.1-0.06l-0.1-0.07c-0.01,0-0.02,0-0.03,0l0,0l-3.07-1.8c-0.01,0-0.02,0-0.03,0l-0.25-0.16c-0.01,0-0.01,0-0.02,0
	c0,0,0-0.01-0.01-0.02l-0.29-0.16c-0.01,0-0.02,0-0.03,0c0-0.02,0-0.02-0.01-0.03l-0.13-0.05l0,0l-0.11-0.07l-0.09-0.06
	c-0.01-0.01-0.01-0.02-0.02-0.04l-3.09-1.76c0,0,0,0-0.01,0s-0.01-0.02-0.02-0.02l-0.25-0.15l0,0c0,0,0-0.02-0.01-0.02l-0.3-0.17
	l-0.11-0.07H92.4c-0.01,0-0.01,0-0.01,0l-2.35-1.36l0,0l-2.29-1.3l-0.24-0.15c0-0.01-0.01,0-0.02-0.01
	c-0.01-0.01-0.01-0.01-0.02-0.02l-0.57-0.34c-0.07-0.05-0.16-0.02-0.23-0.03c-0.08-0.03-0.14-0.1-0.22-0.1
	c-0.04,0-0.07,0.04-0.11,0.06C86.21,189.52,86.13,189.57,86.03,189.63z M90.48,222.25h0.05c0.02,0,0.04-0.03,0.06-0.03l0,0h0.01l0,0
	c0.09,0,0.19-0.01,0.29-0.04l0.15-0.05v15.6v4.28l-0.57-0.32v-19.46C90.47,222.25,90.47,222.25,90.48,222.25z M90.47,216.2V193.7
	l0.57,0.33v5.27v4.47v12.47h-0.01c-0.04-0.02-0.09,0-0.14-0.02c-0.01,0-0.02-0.02-0.03-0.02l-0.09-0.01
	c-0.04-0.02-0.07-0.06-0.11-0.06C90.58,216.14,90.53,216.19,90.47,216.2z M91.47,244.34L91.47,244.34l15.56,8.96l-0.51,0.3
	l-17.46-10.07l0.51-0.3L91.47,244.34z M95.27,202.25l0.24,0.15c0,0,0.01,0,0.02,0c0,0,0,0.01,0,0.02l3.78,2.17l0.25,0.16
	c0,0,0.01,0,0.02,0c0,0.02,0,0.02,0,0.02l3.79,2.18l0.25,0.16c0.01,0,0.02,0,0.02,0v0.02l3.13,1.79v2.45l-4.61-2.67
	c-0.01,0-0.01,0-0.02,0v-0.01l-0.25-0.15c-0.02-0.02-0.04,0-0.07-0.02c-0.01-0.02-0.02-0.04-0.03-0.05l-0.31-0.15
	c-0.01,0-0.02,0-0.02,0c-0.02-0.02-0.02-0.03-0.02-0.04l0,0c-0.01,0-0.01,0-0.01,0l-2.16-1.26l0,0l-6.2-3.58c0,0-0.02,0-0.02,0
	c-0.02-0.02-0.02-0.05-0.04-0.05l-0.21-0.11v-2.45L95.27,202.25z M93.53,198.33v-2.86l1.31,0.76v2.86L93.53,198.33z M97.6,200.69
	v-2.86l1.29,0.75v2.85L97.6,200.69z M101.67,203.03v-2.86l1.29,0.75v2.85L101.67,203.03z M105.71,205.37v-2.87l1.07,0.62v2.86
	L105.71,205.37z M106.48,213.82v9.67l-3.37-1.94v-9.66L106.48,213.82z M100.1,209.53v11.68l-0.38-0.22v-0.26v-0.02v-0.04v-11.34
	L100.1,209.53z M97.42,208.6v9.63l-3.36-1.94v-0.45v-9.17L97.42,208.6z M98.38,222.26L98.38,222.26l2.16,1.25v0.01l6.24,3.59v2.44
	l-4.61-2.66c-0.01,0-0.02,0-0.04,0c-0.02-0.02-0.02-0.04-0.03-0.06l-0.55-0.3c-0.02-0.02-0.03,0-0.06,0
	c-0.02-0.02-0.02-0.05-0.03-0.07l0,0c-0.01,0-0.01,0-0.01,0l-2.16-1.25l0,0v-0.02l-6.19-3.55l0,0c-0.02-0.02-0.02-0.04-0.03-0.04
	l-0.23-0.13v-2.45L98.38,222.26z M106.48,232.04v11.68l-3.37-1.95V230.1L106.48,232.04z M99.71,240.93
	C99.71,240.92,99.71,240.92,99.71,240.93c0-0.02,0-0.02,0-0.02c0-0.02,0-0.02,0-0.02v-13.35l0.38,0.21v13.68l-0.38-0.21V240.93
	C99.71,240.94,99.71,240.94,99.71,240.93z M97.42,226.83v11.63l-3.36-1.95v-11.63L97.42,226.83z M98.38,242.47L98.38,242.47
	l2.15,1.26l0,0v0.01l6.49,3.71v3.79l-14.22-8.2v-3.77L98.38,242.47z M88.2,218.43c0,0.03-0.03,0.06-0.03,0.1l0.02,0.19
	c0,0.02,0.02,0.02,0.02,0.03s-0.01,0.02-0.01,0.04l0.03,0.19c0.01,0.06,0.06,0.08,0.08,0.14c0.02,0.05-0.01,0.09,0.02,0.13l0.1,0.17
	c0,0.02,0.02,0.01,0.02,0.02c0.01,0.02,0,0.03,0.01,0.04l0.11,0.17c0.01,0.02,0.04,0.01,0.06,0.04c0.02,0.02,0.01,0.07,0.03,0.09
	l0.02,0.02v21.89l-0.53,0.3v-8.42v-41.2l0.53,0.3v24.69c-0.01,0-0.02,0-0.03,0l-0.03,0.03c-0.01,0.02-0.02,0.02-0.04,0.03
	l-0.02,0.02c-0.01,0.01-0.01,0.02-0.02,0.03c-0.04,0.04-0.06,0.11-0.1,0.16c-0.01,0.02-0.02,0.03-0.02,0.06
	c-0.02,0.04-0.08,0.04-0.1,0.09l-0.06,0.11c-0.02,0.07,0.01,0.11,0,0.17l0,0c-0.01,0.05-0.06,0.08-0.07,0.12l-0.02,0.13
	C88.17,218.37,88.2,218.39,88.2,218.43z"/>
</svg>
