<?xml version="1.0" encoding="utf-8"?>
<!-- Generator: Adobe Illustrator 24.1.2, SVG Export Plug-In . SVG Version: 6.00 Build 0)  -->
<svg version="1.1" id="레이어_1" xmlns="http://www.w3.org/2000/svg" xmlns:xlink="http://www.w3.org/1999/xlink" x="0px"
	 y="0px" viewBox="0 0 122 34" style="enable-background:new 0 0 122 34;" xml:space="preserve">
<style type="text/css">
	.st0{fill:#9E9E9F;}
	.st1{fill:none;}
</style>
<path class="st0" d="M48.9,5.3c0-0.1-0.1-0.1-0.2,0l-1.9,1.9l-0.5,0.5c0,0.1,0,0.1,0,0.2c0,0,0.1,0,0.1,0s0.1,0,0.1,0l0.5-0.5
	l1.9-1.9C49,5.4,49,5.3,48.9,5.3z M41,13.3C41,13.3,41,13.3,41,13.3c-0.5-0.4-1-0.6-1.7-0.8c-0.1,0-0.1,0-0.2,0.1s0,0.1,0.1,0.1
	c0.6,0.1,1.1,0.3,1.5,0.7c0.3,0.3,0.6,0.7,0.7,1.1c0,0.1,0.1,0.1,0.1,0.1c0,0,0,0,0,0c0.1,0,0.1-0.1,0.1-0.2
	C41.7,14,41.4,13.6,41,13.3L41,13.3z M38.6,3.4C38.6,3.4,38.6,3.4,38.6,3.4l2.7-2.6c0-0.1,0-0.1,0-0.2s-0.1-0.1-0.2,0l-2.6,2.6
	C38.4,3.3,38.4,3.3,38.6,3.4C38.5,3.4,38.5,3.4,38.6,3.4z M46.9,15.1C46.9,15.1,46.9,15.1,46.9,15.1L46.9,15.1L43,18.9
	C43,19,42.9,19,42.8,19.1c-0.5,0.5-1.1,0.8-1.8,1l0,0l0,0c-0.7,0.3-1.5,0.4-2.3,0.4c-0.9,0-1.7-0.1-2.3-0.4l0,0l0,0
	c-0.8-0.3-1.4-0.6-1.8-1c0,0,0,0,0,0c0,0,0,0,0,0c-0.5-0.4-0.9-0.9-1.2-1.6l0,0l0,0c-0.3-0.5-0.4-1.2-0.4-2c0-0.8,0.1-1.4,0.4-2l0,0
	l0,0c0.2-0.5,0.5-0.9,0.9-1.3l2.8-2.8l0,0l0,0l1-1c0-0.1,0-0.1,0-0.2s-0.1-0.1-0.2,0L37,9.1H32l3.6-3.6c0-0.1,0-0.1,0-0.2
	c0-0.1-0.1-0.1-0.2,0l-3.6,3.6V7.2l3.8-3.8c0,0,0-0.1,0-0.2c0,0-0.1,0-0.2,0l-3.8,3.8c0,0,0,0.1,0,0.1v2.1c0,0.1,0.1,0.1,0.1,0.1h5
	L34.1,12c-0.4,0.4-0.8,0.9-1,1.4l0,0l0,0l0,0l0,0c-0.3,0.6-0.4,1.3-0.4,2.1c0,0.8,0.2,1.5,0.4,2.1l0,0c0,0,0,0,0,0l0,0l0,0
	c0.3,0.7,0.7,1.2,1.2,1.6l0,0l0,0c0,0,0,0,0,0l0,0c0.5,0.5,1.1,0.8,1.9,1.1l0,0l0,0l0,0l0,0c0.7,0.3,1.5,0.4,2.4,0.4
	c0.9,0,1.7-0.1,2.4-0.4l0,0c0.8-0.3,1.4-0.6,1.9-1.1c0.1-0.1,0.1-0.1,0.2-0.2l3.8-3.8l0,0l0,0l0,0c0-0.1,0-0.1,0-0.2
	C47,15,46.9,15,46.9,15.1z M47,18.3c-0.1,0-0.1-0.1-0.1-0.1v-3.1c0-0.1,0.1-0.1,0.1-0.1s0.1,0.1,0.1,0.1v3.1
	C47.1,18.3,47,18.3,47,18.3z M49.1,17.8C49.1,17.8,49,17.8,49.1,17.8C49,17.7,49,17.7,49,17.6l1.7-1.7c0-0.1,0.1-0.1,0.2,0
	s0,0.1,0,0.2L49.1,17.8C49.2,17.8,49.2,17.8,49.1,17.8z M54.9,18.8C54.9,18.8,54.9,18.8,54.9,18.8c-0.1-0.1-0.1-0.2-0.1-0.2l1.6-1.6
	c0,0,0.1,0,0.2,0s0,0.1,0,0.2L54.9,18.8C55,18.8,55,18.8,54.9,18.8z M53.3,13.2C53.3,13.2,53.2,13.2,53.3,13.2
	c-0.1-0.1-0.1-0.2-0.1-0.2l3.2-3.2c0-0.1,0.1-0.1,0.2,0s0,0.1,0,0.2L53.3,13.2C53.4,13.2,53.3,13.2,53.3,13.2z M47,8.4
	c-0.1,0-0.1-0.1-0.1-0.1v-1c0-0.1,0.1-0.1,0.1-0.1s0.1,0.1,0.1,0.1v1C47.1,8.4,47,8.4,47,8.4z M56.4,19.9
	C56.4,19.9,56.3,19.9,56.4,19.9c-0.1-0.1-0.1-0.2-0.1-0.2L59,17c0,0,0.1,0,0.2,0s0,0.1,0,0.2L56.4,19.9
	C56.5,19.9,56.4,19.9,56.4,19.9z M53.3,4.1C53.3,4.1,53.2,4.1,53.3,4.1c-0.1-0.1-0.1-0.2-0.1-0.2l3.2-3.2c0-0.1,0.1-0.1,0.2,0
	s0,0.1,0,0.2L53.3,4.1C53.4,4.1,53.3,4.1,53.3,4.1z M52.7,18c-0.1,0-0.1-0.1-0.1-0.1v-1.3c0-0.1,0.1-0.1,0.1-0.1s0.1,0.1,0.1,0.1
	v1.3C52.9,18,52.8,18,52.7,18z M53.4,15.9c0-0.1-0.1-0.1-0.2,0l-0.6,0.6l-1.1,1.1c0,0,0,0.1,0,0.2c0,0,0.1,0,0.1,0s0.1,0,0.1,0
	l1.1-1.1l0.6-0.6C53.5,16,53.5,16,53.4,15.9z M50.9,1.2c0,0-0.1,0-0.2,0l-2,2c0,0,0,0.1,0,0.1c0,0.1,0.1,0.1,0.1,0.1h0
	c0,0,0.1,0,0.1-0.1l2-2C51,1.4,51,1.3,50.9,1.2z M51.3,25.9C51.3,25.9,51.3,25.9,51.3,25.9C51.3,25.9,51.3,25.9,51.3,25.9
	c-0.3-0.5-0.7-0.9-1.1-1.2c0,0,0,0,0,0l0,0c-0.5-0.4-1.1-0.6-1.6-0.8l0,0l0,0c-0.7-0.2-1.3-0.3-2-0.3c-0.4,0-0.8,0-1.1,0.1
	c-0.1,0-0.1,0.1-0.1,0.1s0.1,0.1,0.2,0.1c0.4,0,0.7-0.1,1.1-0.1c0.6,0,1.3,0.1,1.9,0.2c0.5,0.2,1,0.4,1.5,0.7c0.4,0.3,0.7,0.7,1,1.1
	c0.2,0.4,0.3,0.8,0.3,1.3c0,0.1,0.1,0.1,0.1,0.1h0c0.1,0,0.1-0.1,0.1-0.1C51.6,26.8,51.5,26.4,51.3,25.9z M56.5,27.5
	c0,0-0.1,0-0.2,0l-3.8,3.8c-0.2,0.2-0.3,0.3-0.5,0.5c-0.7,0.5-1.5,0.9-2.4,1.2c-1,0.3-2,0.4-3,0.4c-1,0-2-0.1-3-0.4
	c-0.9-0.3-1.7-0.7-2.4-1.2c-0.7-0.6-1.2-1.2-1.6-1.9l0,0l0,0c-0.4-0.7-0.6-1.5-0.6-2.4s0.2-1.7,0.6-2.5c0.3-0.5,0.6-1,1-1.4l3.8-3.8
	c0,0,0-0.1,0-0.2c0,0-0.1,0-0.2,0l-3.8,3.8c-0.5,0.5-0.8,1-1.1,1.5c-0.4,0.8-0.6,1.6-0.6,2.6c0,1,0.2,1.8,0.6,2.5l0,0l0,0l0,0l0,0
	c0.3,0.7,0.9,1.3,1.6,1.9l0,0l0,0c0.7,0.5,1.5,1,2.5,1.3l0,0l0,0c1,0.3,2,0.4,3,0.4c1.1,0,2.1-0.1,3.1-0.4l0,0l0,0
	c0.9-0.3,1.8-0.8,2.5-1.3l0,0l0,0c0.2-0.2,0.4-0.3,0.5-0.5l3.8-3.8C56.5,27.6,56.5,27.6,56.5,27.5z M78,26C78,26,78,26,78,26
	C78,26,78,26,78,26c-0.3-0.5-0.6-0.9-1-1.2l0,0l0,0c-0.5-0.3-1-0.6-1.6-0.8l0,0l0,0c-1-0.3-2.1-0.3-3.1-0.2c-0.1,0-0.1,0.1-0.1,0.1
	c0,0.1,0.1,0.1,0.2,0.1c1-0.1,2-0.1,3,0.2c0.5,0.2,1,0.4,1.5,0.7c0.4,0.3,0.7,0.7,1,1.1c0.2,0.4,0.3,0.8,0.3,1.2
	c0,0.1,0.1,0.1,0.1,0.1h0c0.1,0,0.1-0.1,0.1-0.1C78.4,26.8,78.3,26.4,78,26z M83.3,27.6c-0.1,0-0.1,0-0.2,0l-3.8,3.8
	c-0.2,0.2-0.3,0.3-0.5,0.5c-0.7,0.5-1.4,0.9-2.3,1.2c-1,0.3-2,0.4-3.1,0.4c-1.1,0-2.1-0.1-3.1-0.4c-0.9-0.3-1.7-0.7-2.3-1.2
	c-0.7-0.5-1.1-1.1-1.5-1.9c-0.4-0.7-0.5-1.5-0.5-2.4c0-0.8,0.2-1.6,0.5-2.3l0,0l0,0c0.3-0.6,0.6-1.1,1.1-1.5
	c0.1-0.1,0.3-0.3,0.4-0.4c0,0,0,0,0.1-0.1l3.4-3.4c0.1,0,0.1-0.1,0-0.2c-0.1,0-0.1,0-0.2,0l-3.8,3.8c-0.5,0.5-0.8,1-1.1,1.6l0,0l0,0
	l0,0l0,0c-0.4,0.8-0.6,1.6-0.6,2.4c0,0.9,0.2,1.8,0.6,2.5c0.4,0.8,0.9,1.4,1.6,1.9c0.7,0.6,1.5,1,2.4,1.3l0,0l0,0
	c1,0.3,2,0.4,3.1,0.4c1.1,0,2.1-0.2,3.1-0.4l0,0l0,0c1-0.3,1.8-0.7,2.4-1.2l0,0l0,0c0.2-0.1,0.4-0.3,0.5-0.5l0,0l0,0l3.8-3.8
	C83.3,27.7,83.3,27.6,83.3,27.6z M80.8,13.5C80.8,13.5,80.8,13.5,80.8,13.5c-0.1-0.1-0.1-0.2-0.1-0.2l2.2-2.2c0.1-0.1,0.1-0.1,0.2,0
	s0.1,0.1,0,0.2L80.8,13.5C80.9,13.5,80.9,13.5,80.8,13.5z M83.8,13.5C83.8,13.5,83.8,13.5,83.8,13.5c-0.1-0.1-0.1-0.2-0.1-0.2
	l1.7-1.7c0.1-0.1,0.1-0.1,0.2,0s0.1,0.1,0,0.2L83.8,13.5C83.9,13.5,83.8,13.5,83.8,13.5z M83.8,4.2c-0.1-0.1-0.1-0.1-0.2,0L79.8,8
	H64.5l3.6-3.6c0.1-0.1,0.1-0.1,0-0.2c-0.1-0.1-0.1-0.1-0.2,0l-3.6,3.6v-2L68.1,2c0.1,0,0.1-0.1,0-0.2c-0.1,0-0.1,0-0.2,0l-3.8,3.8
	c0,0,0,0.1,0,0.1v2.4c0,0.1,0.1,0.1,0.1,0.1h15.5c0,1.6-0.1,3.3-0.4,5.1c0,0.1,0,0.1,0.1,0.1c0,0,0,0,0,0c0.1,0,0.1-0.1,0.1-0.1
	c0.3-1.9,0.4-3.6,0.4-5.2l3.8-3.8C83.8,4.4,83.8,4.3,83.8,4.2z M90.9,15.7c-0.1-0.1-0.1-0.1-0.2,0L87,19.5h-4
	c-0.1,0-0.1,0.1-0.1,0.1s0.1,0.1,0.1,0.1h4c0,0,0.1,0,0.1,0l3.8-3.8C91,15.8,91,15.8,90.9,15.7z M71.5,19.5H60.1l3.6-3.6
	c0-0.1,0-0.1,0-0.2s-0.1-0.1-0.2,0l-3.6,3.6v-2l3.8-3.8c0-0.1,0-0.1,0-0.2s-0.1-0.1-0.2,0l-3.8,3.8c0,0,0,0.1,0,0.1v2.4
	c0,0.1,0.1,0.1,0.1,0.1h11.7c0.1,0,0.1-0.1,0.1-0.1C71.6,19.5,71.6,19.5,71.5,19.5z M74.6,8.4c-0.1-0.1-0.1-0.1-0.2,0l-3.8,3.8
	c0,0,0,0.1,0,0.1v1.1c0,0.1,0.1,0.1,0.1,0.1s0.1-0.1,0.1-0.1v-1.1l3.8-3.8C74.6,8.5,74.6,8.4,74.6,8.4z M116.1,19.3
	c-0.1,0-0.1,0-0.2,0l-3.8,3.8h-2.3l3.6-3.6c0.1,0,0.1-0.1,0-0.2c-0.1,0-0.1,0-0.2,0l-3.6,3.6V4.6l3.8-3.8c0.1-0.1,0.1-0.1,0-0.2
	s-0.1-0.1-0.2,0l-3.8,3.8c0,0,0,0.1,0,0.1v18.7c0,0.1,0.1,0.1,0.1,0.1h2.7c0,0,0.1,0,0.1,0l3.8-3.8
	C116.1,19.4,116.1,19.3,116.1,19.3z M120.7,10.7c-0.1-0.1-0.1-0.1-0.2,0l-3.8,3.8H116c-0.1,0-0.1,0.1-0.1,0.1s0.1,0.1,0.1,0.1h0.8
	c0,0,0.1,0,0.1,0l3.8-3.8C120.7,10.9,120.7,10.8,120.7,10.7z M105.5,4.2c-0.1-0.1-0.1-0.1-0.2,0L101.5,8h-9.7l3.6-3.6
	c0.1-0.1,0.1-0.1,0-0.2s-0.1-0.1-0.2,0l-3.6,3.6v-2L95.4,2c0.1,0,0.1-0.1,0-0.2s-0.1,0-0.2,0l-3.8,3.8c0,0,0,0.1,0,0.1v2.4
	c0,0.1,0.1,0.1,0.1,0.1h9.9c-0.2,1.1-0.6,2.2-1.2,3.2c-0.1,0.2-0.2,0.4-0.3,0.6c0,0.1,0,0.1,0,0.2c0,0,0.1,0,0.1,0
	c0,0,0.1,0,0.1-0.1c0.1-0.2,0.2-0.4,0.4-0.6c0.6-1.1,1-2.2,1.2-3.4l3.8-3.8C105.5,4.4,105.5,4.3,105.5,4.2z M104.4,11.9
	c-0.1-0.1-0.1-0.1-0.2,0l-3.8,3.8c-1,1-2,1.8-3.3,2.5c-1.4,0.8-2.9,1.5-4.5,1.9l3.4-3.5c0.1,0,0.1-0.1,0-0.2c-0.1,0-0.1,0-0.2,0
	l-3.7,3.7c-0.3-0.3-0.5-0.6-0.7-0.9c0,0,0,0,0,0c0,0,0,0,0,0c-0.3-0.3-0.5-0.6-0.8-0.9l3.7-3.7c0.1-0.1,0.1-0.1,0-0.2
	s-0.1-0.1-0.2,0l-3.8,3.8c0,0,0,0,0,0c0,0,0,0,0,0c0,0,0,0,0,0c0,0,0,0,0,0c0.3,0.3,0.6,0.7,0.9,1c0.2,0.4,0.5,0.7,0.8,1h0
	c0,0,0.1,0,0.1,0c0,0,0,0,0,0c1.8-0.5,3.5-1.2,5.1-2.1c1.3-0.7,2.3-1.6,3.3-2.6l3.8-3.8C104.5,12.1,104.5,12,104.4,11.9z
	 M116.5,28.6c-0.1,0-0.1,0-0.2,0l-3.8,3.8H95l3.6-3.6c0.1,0,0.1-0.1,0-0.2c-0.1,0-0.1,0-0.2,0l-3.6,3.6v-9.4l3.8-3.8
	c0.1,0,0.1-0.1,0-0.2c-0.1,0-0.1,0-0.2,0l-3.8,3.8c0,0,0,0.1,0,0.1v9.8c0,0.1,0.1,0.1,0.1,0.1h17.9c0,0,0.1,0,0.1,0l3.8-3.8
	C116.6,28.7,116.6,28.7,116.5,28.6z M21.8,25.3L21.8,25.3C21.8,25.3,21.8,25.3,21.8,25.3c-0.3-0.5-0.7-1-1.1-1.4l0,0l0,0
	c-0.5-0.4-1-0.7-1.7-0.9l0,0l0,0c-1.2-0.4-2.3-0.4-3.3-0.2c-0.1,0-0.1,0.1-0.1,0.1c0,0.1,0.1,0.1,0.1,0.1c1-0.2,2-0.1,3.2,0.2
	c0.6,0.2,1.1,0.5,1.6,0.8c0.4,0.4,0.8,0.8,1,1.3c0.3,0.5,0.4,1.1,0.4,1.6c0,0.1,0.1,0.1,0.1,0.1s0.1-0.1,0.1-0.1
	C22.2,26.5,22.1,25.9,21.8,25.3z M26.8,27.6c0,0-0.1,0-0.2,0L23.2,31c0,0,0,0,0,0c-0.1,0.1-0.2,0.3-0.3,0.4l0,0l0,0l0,0l0,0
	c-0.1,0.1-0.2,0.2-0.4,0.3c-0.8,0.6-1.6,1-2.4,1.3c-1,0.3-2,0.5-3,0.5c-1.1,0-2.1-0.2-3-0.5c-0.9-0.3-1.8-0.7-2.4-1.3
	c-0.7-0.6-1.2-1.2-1.6-2l0,0l0,0c-0.4-0.7-0.6-1.6-0.6-2.6c0-1,0.2-1.9,0.6-2.7c0.3-0.6,0.6-1.1,1.1-1.5l3.8-3.8
	c0.1,0,0.1-0.1,0-0.2s-0.1,0-0.2,0l-3.8,3.8c-0.5,0.5-0.8,1-1.1,1.6c-0.4,0.8-0.6,1.8-0.6,2.8c0,1.1,0.2,2,0.6,2.8l0,0l0,0l0,0l0,0
	c0.4,0.8,1,1.5,1.7,2.1c0.7,0.5,1.5,1,2.5,1.3c0.9,0.3,2,0.5,3.1,0.5c1.1,0,2.1-0.2,3.1-0.5l0,0l0,0c0.9-0.3,1.7-0.7,2.5-1.3l0,0
	l0,0c0.1-0.1,0.3-0.2,0.4-0.4l0,0l0,0l3.8-3.8C26.8,27.7,26.8,27.6,26.8,27.6z M23.4,14.3c0-0.1-0.1-0.1-0.2,0L22.4,15l-1.6,1.6
	c0,0,0,0.1,0,0.2c0,0,0.1,0,0.1,0s0.1,0,0.1,0l1.6-1.6l0.7-0.7C23.4,14.4,23.4,14.3,23.4,14.3z M19,7.2C18.9,7.2,18.9,7.2,19,7.2
	C18.8,7.1,18.8,7,18.9,7l2.8-2.8c0-0.1,0.1-0.1,0.2,0c0,0.1,0,0.1,0,0.2L19,7.2C19,7.2,19,7.2,19,7.2z M13.9,8.2h-2.4
	c-0.1,0-0.1-0.1-0.1-0.1c0-0.1,0.1-0.1,0.1-0.1h2.4C14,7.9,14,8,14,8.1C14,8.1,14,8.2,13.9,8.2z M9,5.5C9,5.5,8.9,5.5,8.8,5.5L6.4,8
	L5,9.3c0,0,0,0.1,0,0.1c0,0.6,0,1.2,0.1,1.8c0,0.7,0,1.3,0.1,1.9c0,0.2,0,0.4,0,0.6c0,0.1,0.1,0.1,0.1,0.1l0,0
	c0.1,0,0.1-0.1,0.1-0.1c0-0.2,0-0.4,0-0.6c0,0,0,0,0,0h0c0-0.6-0.1-1.3-0.1-1.9c0,0,0,0,0,0c0,0,0,0,0,0C5.3,10.6,5.2,10,5.2,9.5
	l1.3-1.3L9,5.7C9.1,5.7,9.1,5.6,9,5.5z M16.6,5.4c0-0.1-0.1-0.1-0.2,0L13.8,8l-1.2,1.2c0,0,0,0.1-0.1,0.1c0,0.6-0.1,1.2-0.1,1.8
	c-0.1,0.7-0.1,1.3-0.1,2c0,0,0,0.1,0,0.1c0,0.1,0,0.1,0.1,0.1h0c0.1,0,0.1-0.1,0.1-0.1c0,0,0,0,0-0.1h0c0,0,0,0,0,0l0,0l0,0l0,0
	c0-0.6,0-1.3,0.1-1.9c0,0,0,0,0,0c0,0,0,0,0,0c0-0.6,0-1.2,0.1-1.7L14,8.1l2.6-2.6C16.6,5.5,16.6,5.4,16.6,5.4z M14.9,18.7
	c-2.8,0.3-5.8,0.4-9,0.4H2.4L6,15.5c0.1-0.1,0.1-0.1,0-0.2s-0.1-0.1-0.2,0l-3.6,3.6V17l3.1-3.1l0.7-0.7c0.1-0.1,0.1-0.1,0-0.2
	S5.9,13,5.9,13l-0.7,0.7L2,16.8c0,0,0,0,0,0.1v2.3c0,0.1,0.1,0.1,0.1,0.1h3.8c3.2,0,6.2-0.1,9-0.4c0.1,0,0.1-0.1,0.1-0.1
	C15.1,18.7,15,18.7,14.9,18.7z M6.5,7.9H2.8l3.6-3.6c0.1-0.1,0.1-0.1,0-0.2s-0.1-0.1-0.2,0L2.6,7.7V5.8L6.4,2c0.1,0,0.1-0.1,0-0.2
	s-0.1,0-0.2,0L2.4,5.7c0,0,0,0,0,0.1v2.3c0,0.1,0.1,0.1,0.1,0.1h4c0.1,0,0.1-0.1,0.1-0.1C6.6,8,6.6,7.9,6.5,7.9z M18.9,9.8
	C18.8,9.8,18.8,9.7,18.9,9.8c-0.1-0.1-0.1-0.2-0.1-0.2l3-3c0-0.1,0.1-0.1,0.2,0c0,0.1,0,0.1,0,0.2L18.9,9.8
	C18.9,9.7,18.9,9.8,18.9,9.8z M25,17.8C25,17.8,24.9,17.8,25,17.8c-0.1-0.1-0.1-0.2-0.1-0.2l1.4-1.4c0,0,0.1,0,0.2,0
	c0,0,0,0.1,0,0.2L25,17.8C25.1,17.8,25,17.8,25,17.8z M23.3,14.4C23.2,14.4,23.2,14.4,23.3,14.4c-0.1-0.1-0.1-0.2-0.1-0.2l3.1-3.1
	c0-0.1,0.1-0.1,0.2,0s0,0.1,0,0.2L23.3,14.4C23.3,14.4,23.3,14.4,23.3,14.4z M24,9.1C23.9,9.1,23.9,9.1,24,9.1
	c-0.1-0.1-0.1-0.2-0.1-0.2l2.4-2.4c0-0.1,0.1-0.1,0.2,0c0,0.1,0,0.1,0,0.2L24,9.1C24,9.1,24,9.1,24,9.1z M20.6,12.6
	C20.6,12.6,20.5,12.6,20.6,12.6c-0.1-0.1-0.1-0.2-0.1-0.2l1.3-1.3c0-0.1,0.1-0.1,0.2,0s0,0.1,0,0.2L20.6,12.6
	C20.6,12.6,20.6,12.6,20.6,12.6z M20.5,10.5h-1.6c-0.1,0-0.1-0.1-0.1-0.1s0.1-0.1,0.1-0.1h1.6c0.1,0,0.1,0.1,0.1,0.1
	S20.5,10.5,20.5,10.5z M18.9,7.5C18.9,7.5,18.9,7.4,18.9,7.5c-0.1-0.1-0.1-0.2-0.1-0.2l3-3c0-0.1,0.1-0.1,0.2,0s0,0.1,0,0.2
	L18.9,7.5C19,7.4,19,7.5,18.9,7.5z M22.5,17c-0.1,0-0.1-0.1-0.1-0.1v-1.7c0-0.1,0.1-0.1,0.1-0.1s0.1,0.1,0.1,0.1v1.7
	C22.7,16.9,22.6,17,22.5,17z M26.6,18.9C26.6,18.9,26.6,18.9,26.6,18.9c-0.1-0.1-0.1-0.2-0.1-0.2l2.4-2.4c0,0,0.1,0,0.2,0
	s0,0.1,0,0.2L26.6,18.9C26.7,18.9,26.6,18.9,26.6,18.9z M22.7,4.5C22.6,4.5,22.6,4.5,22.7,4.5c-0.1-0.1-0.1-0.2-0.1-0.2l3.7-3.7
	c0-0.1,0.1-0.1,0.2,0s0,0.1,0,0.2L22.7,4.5C22.8,4.5,22.7,4.5,22.7,4.5z M22,8.9c0-0.1-0.1-0.1-0.2,0l-1.4,1.4L18.7,12
	c0,0.1,0,0.1,0,0.2c0,0,0.1,0,0.1,0s0.1,0,0.1,0l1.7-1.7L22,9.1C22,9,22,8.9,22,8.9z"/>
<path class="st1" d="M59.1,0.4h-2.5c-0.1,0-0.3,0.1-0.3,0.3v6.5h-2.7V4V1.3c0-0.1-0.1-0.3-0.3-0.3h-2.5c-0.1,0-0.3,0.1-0.3,0.3V16
	c0,0.1,0.1,0.3,0.3,0.3h2.5c0.1,0,0.3-0.1,0.3-0.3v-5.9h2.7v7c0,0.1,0.1,0.3,0.3,0.3h2.5c0.1,0,0.3-0.1,0.3-0.3V0.7
	C59.3,0.6,59.2,0.4,59.1,0.4z M58.8,16.8h-2v-7c0-0.1-0.1-0.3-0.3-0.3h-3.2c-0.1,0-0.3,0.1-0.3,0.3v5.9h-2V1.6h2v2.4v3.5
	c0,0.1,0.1,0.3,0.3,0.3h3.2c0.1,0,0.3-0.1,0.3-0.3V1h2V16.8z M55.2,22L55.2,22C55.2,22,55.2,22,55.2,22c-0.3-0.5-0.7-0.9-1.1-1.3h0
	c0,0,0,0,0,0c-0.5-0.4-1.1-0.6-1.7-0.8c0,0,0,0,0,0c0,0,0,0,0,0c-1.3-0.3-2.8-0.3-4,0l0,0l0,0c-0.6,0.2-1.1,0.5-1.6,0.8
	c-0.2,0.1-0.3,0.3-0.5,0.4l0,0l0,0l-0.1,0.1c0,0,0,0,0,0c-0.2,0.2-0.4,0.5-0.5,0.7c-0.3,0.5-0.4,1.1-0.4,1.7c0,0.1,0,0.1,0,0.2l0,0
	c0,0.5,0.2,1,0.4,1.4l0,0l0,0c0,0,0,0,0,0l0,0c0.3,0.5,0.6,0.9,1.1,1.2c0.5,0.4,1,0.6,1.6,0.8c0,0,0,0,0,0l0,0
	c0.6,0.2,1.3,0.3,2,0.3c0.4,0,0.8,0,1.2-0.1l0,0l0,0c0.3,0,0.6-0.1,0.9-0.2c0,0,0,0,0,0h0c0.6-0.2,1.2-0.5,1.6-0.8l0,0c0,0,0,0,0,0
	c0,0,0,0,0,0c0,0,0.1,0,0.1-0.1l0.3-0.3l0,0l0,0l0,0l0,0l0,0c0.3-0.3,0.5-0.5,0.6-0.8l0,0c0,0,0,0,0,0c0,0,0,0,0,0l0,0
	c0.3-0.5,0.4-1,0.4-1.6C55.6,23.1,55.5,22.6,55.2,22z M54.7,25.1C54.7,25.1,54.7,25.1,54.7,25.1C54.7,25.1,54.7,25.1,54.7,25.1
	c-0.1,0.3-0.3,0.5-0.5,0.7c-0.1,0.1-0.3,0.3-0.4,0.4c-0.4,0.3-0.9,0.5-1.5,0.7C52,27,51.8,27,51.5,27l0,0c-1,0.1-2,0.1-3-0.2
	c-0.5-0.2-1-0.4-1.5-0.7c-0.4-0.3-0.7-0.7-1-1.1c0,0,0,0,0,0v0c-0.2-0.3-0.3-0.7-0.3-1.2l0,0l0,0c0,0,0-0.1,0-0.2
	c0-0.5,0.1-1,0.4-1.4c0.2-0.3,0.3-0.5,0.6-0.7l0,0l0,0c0.1-0.1,0.3-0.2,0.4-0.4c0.5-0.3,1-0.6,1.5-0.7c1.2-0.3,2.5-0.3,3.7,0
	c0.5,0.1,1,0.4,1.5,0.7c0.4,0.3,0.7,0.6,1,1.1c0.2,0.5,0.3,0.9,0.3,1.4C55.1,24.2,55,24.7,54.7,25.1z M57.7,21.1
	C57.7,21.1,57.7,21.1,57.7,21.1C57.7,21.1,57.7,21.1,57.7,21.1c-0.2-0.3-0.4-0.6-0.5-0.9c-0.2-0.2-0.3-0.4-0.5-0.6l0,0l0,0l0,0l0,0
	c-0.2-0.2-0.4-0.4-0.6-0.5c0,0,0,0,0,0l0,0c-0.7-0.5-1.5-0.9-2.5-1.3c0,0,0,0,0,0c0,0,0,0,0,0c-0.2-0.1-0.5-0.1-0.7-0.2l0,0l0,0l0,0
	l0,0c-0.4-0.1-0.8-0.1-1.1-0.2l0,0c-0.4,0-0.8-0.1-1.3-0.1c-1.1,0-2.1,0.1-3.1,0.4l0,0l0,0c-0.1,0-0.3,0.1-0.4,0.1l0,0l0,0
	c-0.8,0.3-1.5,0.7-2.1,1.1l0,0l0,0c-0.2,0.2-0.4,0.3-0.5,0.5l0,0l0,0l0,0l0,0c-0.5,0.5-0.8,1-1.1,1.5c-0.4,0.8-0.6,1.6-0.6,2.6
	c0,1,0.2,1.8,0.6,2.6l0,0l0,0l0,0l0,0c0.4,0.7,0.9,1.4,1.7,2l0,0l0,0c0.7,0.6,1.6,1,2.5,1.3l0,0l0,0c1,0.3,2,0.4,3.1,0.4
	c1.1,0,2.1-0.1,3.1-0.4l0,0c0,0,0,0,0,0c0.9-0.3,1.8-0.8,2.5-1.3l0,0l0,0c0.2-0.2,0.4-0.3,0.5-0.5l0,0l0,0c0.5-0.5,0.8-0.9,1.1-1.5
	l0,0l0,0c0.4-0.8,0.6-1.7,0.6-2.6C58.3,22.8,58.1,21.9,57.7,21.1z M57.2,26.1c-0.3,0.5-0.6,0.9-1,1.4c-0.2,0.2-0.3,0.3-0.5,0.5
	c-0.6,0.5-1.5,0.9-2.3,1.2c-1,0.3-1.9,0.4-3,0.4c-1,0-2-0.1-2.9-0.4c-0.9-0.3-1.7-0.7-2.3-1.2c-0.7-0.6-1.2-1.2-1.5-1.8l0,0l0,0
	c-0.4-0.7-0.5-1.5-0.5-2.4c0-0.9,0.2-1.7,0.5-2.4c0.3-0.5,0.6-1,1-1.4l0,0l0,0c0.2-0.1,0.3-0.3,0.5-0.5c0.5-0.4,1.2-0.8,2-1l0,0
	c0.1,0,0.3-0.1,0.4-0.1c0.9-0.3,1.9-0.4,2.9-0.4c0.4,0,0.8,0,1.2,0.1l0,0c0.4,0,0.7,0.1,1.1,0.2l0,0l0,0c0.2,0,0.4,0.1,0.7,0.2
	c0.9,0.3,1.7,0.7,2.4,1.2c0.2,0.1,0.3,0.3,0.5,0.5l0,0l0,0c0.2,0.2,0.3,0.4,0.5,0.6c0.2,0.2,0.3,0.5,0.5,0.8
	c0.4,0.8,0.5,1.6,0.5,2.4C57.8,24.5,57.6,25.3,57.2,26.1z M45,9.4L45,9.4C44.9,9.4,44.9,9.3,45,9.4c-0.7-0.6-1.5-0.9-2.5-0.9
	c-1,0-1.8,0.3-2.5,0.9l0,0l0,0c0,0-0.1,0.1-0.1,0.1c-0.6,0.6-0.9,1.3-0.9,2.2c0,0.4,0,0.7,0.2,1l0,0c0.2,0.5,0.4,0.9,0.8,1.2l0,0
	l0,0l0,0l0,0c0.5,0.4,1,0.7,1.7,0.8l0,0c0.2,0,0.5,0.1,0.8,0.1c1,0,1.8-0.3,2.5-0.9c0.1-0.1,0.1-0.1,0.2-0.2l0,0l0,0
	c0.5-0.6,0.8-1.3,0.8-2.1C46,10.8,45.6,9.9,45,9.4z M44.8,13.4L44.8,13.4c0,0.1-0.1,0.1-0.2,0.1c-0.6,0.5-1.3,0.8-2.2,0.8
	c-0.2,0-0.5,0-0.7-0.1l0,0c-0.6-0.1-1-0.3-1.5-0.7l0,0l0,0c-0.3-0.3-0.6-0.6-0.7-1l0,0l0,0c-0.1-0.3-0.1-0.6-0.1-0.9
	c0-0.7,0.3-1.4,0.7-1.9c0,0,0.1-0.1,0.1-0.1C40.9,9.3,41.6,9,42.5,9c0.8,0,1.5,0.2,2.2,0.7c0.5,0.5,0.8,1.1,0.8,1.9
	C45.4,12.4,45.2,13,44.8,13.4z M48.2,9.5L48.2,9.5C48.2,9.5,48.2,9.5,48.2,9.5c-0.3-0.6-0.7-1.1-1.3-1.7c0,0,0,0,0,0l0,0
	c-0.1-0.1-0.2-0.1-0.3-0.2l0,0c-0.5-0.4-1.1-0.7-1.7-0.9c0,0,0,0,0,0c0,0,0,0,0,0c-0.8-0.3-1.6-0.4-2.4-0.4c-0.9,0-1.7,0.1-2.4,0.4
	l0,0l0,0c-0.8,0.3-1.4,0.7-2,1.1C38,7.9,37.9,8,37.8,8.1c-0.4,0.4-0.8,0.9-1,1.4l0,0l0,0l0,0l0,0c-0.3,0.6-0.5,1.4-0.5,2.2
	c0,0.8,0.2,1.6,0.5,2.1l0,0v0c0,0,0,0,0,0l0,0c0.3,0.7,0.7,1.2,1.2,1.7l0,0l0,0l0,0l0,0c0.5,0.5,1.1,0.8,1.9,1.1l0,0c0,0,0,0,0,0
	c0,0,0,0,0,0l0,0c0.7,0.3,1.5,0.4,2.5,0.4c0.9,0,1.7-0.1,2.5-0.4l0,0l0,0l0,0l0,0c0.8-0.3,1.4-0.6,2-1.1c0.1-0.1,0.2-0.1,0.2-0.2
	c0,0,0,0,0,0c0,0,0,0,0,0c0.4-0.4,0.7-0.9,1-1.5l0,0l0,0c0.3-0.7,0.5-1.4,0.5-2.2C48.6,10.9,48.5,10.2,48.2,9.5z M47.7,13.6
	c-0.3,0.5-0.5,1-0.9,1.3c0,0,0,0,0,0c0,0,0,0,0,0c-0.1,0.1-0.1,0.1-0.2,0.2c-0.5,0.4-1.1,0.8-1.8,1l0,0l0,0
	c-0.7,0.3-1.4,0.4-2.3,0.4c-0.9,0-1.6-0.1-2.3-0.4c0,0,0,0,0,0c0,0,0,0,0,0c-0.8-0.3-1.3-0.6-1.8-1c0,0,0,0,0,0c0,0,0,0,0,0
	c-0.5-0.4-0.9-0.9-1.1-1.5c0,0,0,0,0,0v0c-0.3-0.5-0.4-1.2-0.4-1.9s0.1-1.4,0.4-2l0,0l0,0c0.2-0.5,0.5-0.9,0.9-1.3
	c0.1-0.1,0.2-0.2,0.3-0.2c0.5-0.4,1.1-0.8,1.8-1c0.7-0.2,1.4-0.3,2.3-0.3c0.8,0,1.6,0.1,2.3,0.3c0.5,0.2,1,0.5,1.5,0.8l0,0l0,0
	c0.1,0.1,0.2,0.1,0.2,0.2c0.5,0.5,0.9,1,1.2,1.5c0.3,0.6,0.4,1.3,0.4,2C48.1,12.4,48,13,47.7,13.6z M48.8,3C48.8,3,48.8,3,48.8,3
	C48.8,3,48.8,3,48.8,3h-4.8V0.7c0-0.1-0.1-0.3-0.3-0.3h-2.7c-0.1,0-0.3,0.1-0.3,0.3V3h-2.3h-3c-0.1,0-0.3,0.1-0.3,0.3v2.1
	c0,0.1,0.1,0.3,0.3,0.3h13.3c0.1,0,0.3-0.1,0.3-0.3V3.3C49.1,3.2,49,3,48.8,3z M43.8,3.6h4.8v1.6H35.8V3.6h2.8h2.6
	c0.1,0,0.3-0.1,0.3-0.3V1h2.1v2.3C43.6,3.5,43.7,3.6,43.8,3.6z M82,22.1L82,22.1L82,22.1c-0.3-0.5-0.6-0.9-1.1-1.2l0,0l0,0
	c-0.5-0.4-1-0.6-1.6-0.8h0c0,0,0,0,0,0c-0.7-0.2-1.4-0.3-2.1-0.3c-0.7,0-1.4,0.1-2,0.3l0,0l0,0c-0.6,0.2-1.1,0.4-1.6,0.8
	c-0.2,0.1-0.3,0.3-0.5,0.4l0,0L73,21.3c0,0,0,0,0,0c-0.2,0.2-0.4,0.5-0.5,0.7l0,0l0,0c-0.3,0.5-0.4,1-0.4,1.6c0,0.1,0,0.2,0,0.2l0,0
	l0,0c0,0.5,0.2,1,0.4,1.4l0,0l0,0l0,0l0,0c0.3,0.5,0.6,0.9,1.1,1.2c0.4,0.3,0.9,0.5,1.6,0.7l0,0l0,0c0.6,0.2,1.3,0.3,2,0.3
	c0.4,0,0.7,0,1.1-0.1l0,0c0.3,0,0.7-0.1,1-0.2c0,0,0,0,0,0h0c0.6-0.2,1.1-0.5,1.6-0.8c0,0,0,0,0,0l0,0c0.2-0.1,0.3-0.3,0.4-0.4l0,0
	l0,0c0.3-0.3,0.5-0.5,0.6-0.9l0,0l0,0l0,0l0,0c0.3-0.5,0.4-1,0.4-1.6C82.4,23.1,82.2,22.6,82,22.1z M81.5,25.1L81.5,25.1
	C81.5,25.1,81.5,25.1,81.5,25.1c-0.2,0.3-0.3,0.5-0.6,0.8c-0.1,0.1-0.3,0.2-0.4,0.3c-0.4,0.3-0.9,0.6-1.4,0.7
	c-0.3,0.1-0.6,0.1-0.9,0.2l0,0c-1,0.1-2,0.1-2.9-0.2c-0.6-0.2-1.1-0.4-1.5-0.7c-0.4-0.3-0.8-0.7-1-1.1l0,0l0,0
	c-0.2-0.3-0.3-0.7-0.3-1.2l0,0c0-0.1,0-0.1,0-0.2c0-0.5,0.1-1,0.3-1.4c0.2-0.3,0.3-0.5,0.6-0.7c0.1-0.1,0.3-0.3,0.4-0.4
	c0.4-0.3,0.9-0.5,1.4-0.7c0.6-0.2,1.2-0.2,1.9-0.2c0.6,0,1.3,0.1,1.9,0.2c0.5,0.2,1,0.4,1.4,0.7c0.4,0.3,0.7,0.7,0.9,1.1
	c0.2,0.4,0.3,0.9,0.3,1.4C81.8,24.3,81.7,24.7,81.5,25.1z M85,23.7c0-1-0.2-1.8-0.6-2.6c-0.3-0.6-0.7-1.2-1.3-1.7l0,0
	c-0.1-0.1-0.2-0.2-0.3-0.3l0,0l0,0c-0.7-0.5-1.5-0.9-2.5-1.3l0,0c0,0,0,0,0,0c-1-0.3-2.1-0.4-3.2-0.4c-1.2,0-2.3,0.2-3.2,0.5l0,0
	l0,0c-1,0.4-1.8,0.8-2.5,1.4l0,0l0,0l0,0l0,0c-0.1,0-0.1,0.1-0.2,0.1l0,0c-0.1,0.1-0.2,0.2-0.3,0.2l0,0l0,0l0,0l0,0
	c-0.5,0.5-0.8,1-1.1,1.6l0,0l0,0l0,0l0,0c-0.4,0.8-0.6,1.6-0.6,2.5c0,1,0.2,1.8,0.6,2.6c0.4,0.8,0.9,1.4,1.6,2
	c0.7,0.5,1.5,1,2.5,1.3l0,0l0,0c1,0.3,2,0.4,3.2,0.4c1.1,0,2.2-0.1,3.2-0.4l0,0c0,0,0,0,0,0c1-0.3,1.8-0.7,2.5-1.3l0,0l0,0
	c0.2-0.2,0.4-0.3,0.5-0.5l0,0c0.5-0.5,0.8-1,1.1-1.5C84.8,25.6,85,24.7,85,23.7z M83,27.5L83,27.5c-0.2,0.2-0.3,0.3-0.5,0.5
	c-0.6,0.5-1.4,0.9-2.3,1.2c-0.9,0.3-2,0.4-3,0.4c-1.1,0-2.1-0.1-3-0.4c-0.9-0.3-1.7-0.7-2.3-1.2c-0.6-0.5-1.1-1.1-1.5-1.8
	c-0.3-0.7-0.5-1.5-0.5-2.3c0-0.8,0.2-1.5,0.5-2.2c0,0,0,0,0,0l0,0c0.3-0.5,0.6-1,1-1.5l0,0l0,0c0.1-0.1,0.2-0.1,0.2-0.2l0,0l0,0
	c0.1,0,0.1-0.1,0.2-0.1l0,0l0,0c0.6-0.5,1.3-0.9,2.3-1.3c0.9-0.3,1.9-0.5,3-0.5c1,0,2.1,0.1,3,0.4c0.9,0.3,1.7,0.7,2.3,1.2
	c0.1,0.1,0.2,0.2,0.3,0.3l0,0c0.5,0.5,0.9,1,1.2,1.5c0.3,0.7,0.5,1.5,0.5,2.4c0,0.9-0.2,1.7-0.5,2.4C83.7,26.6,83.4,27,83,27.5z
	 M85.8,11.8C85.8,11.7,85.8,11.7,85.8,11.8c0.6-2.7,0.8-6,0.8-9.8c0-0.1-0.1-0.3-0.3-0.3H68c-0.1,0-0.3,0.1-0.3,0.3v2.4
	c0,0.1,0.1,0.3,0.3,0.3h15.4c0,2-0.2,4.2-0.6,6.6c0,0,0,0,0,0.1s0,0,0,0.1s0,0,0,0.1c0,0,0,0,0,0c0,0,0,0,0,0c0,0,0,0,0,0
	c0,0,0,0,0.1,0c0,0,0,0,0,0c0.4,0.1,0.8,0.2,1.3,0.3l0,0c0.4,0.1,0.8,0.2,1.2,0.2c0,0,0,0,0,0c0,0,0.1,0,0.1,0c0,0,0,0,0,0
	C85.7,11.9,85.7,11.9,85.8,11.8C85.7,11.8,85.8,11.8,85.8,11.8C85.8,11.8,85.8,11.8,85.8,11.8C85.8,11.8,85.8,11.8,85.8,11.8z
	 M84.4,11.2L84.4,11.2L84.4,11.2L84.4,11.2c-0.4-0.1-0.7-0.1-1.1-0.2C83.8,8.6,84,6.4,84,4.3c0-0.1-0.1-0.3-0.3-0.3H68.3V2.2h17.8
	c0,3.6-0.3,6.7-0.8,9.2C85,11.3,84.7,11.2,84.4,11.2z M90.8,13.1h-7h-4.3h-2V8.4c0-0.1-0.1-0.3-0.3-0.3h-2.7c-0.1,0-0.3,0.1-0.3,0.3
	v4.7h-3.6h-7.1c-0.1,0-0.3,0.1-0.3,0.3v2.4c0,0.1,0.1,0.3,0.3,0.3h27.2c0.1,0,0.3-0.1,0.3-0.3v-2.4C91.1,13.3,91,13.1,90.8,13.1z
	 M90.6,15.5H63.9v-1.9h6.8h3.8c0.1,0,0.3-0.1,0.3-0.3V8.7h2.2v4.7c0,0.1,0.1,0.3,0.3,0.3h2.3h4.3h6.8L90.6,15.5L90.6,15.5z
	 M120.6,8.2h-4.3V0.7c0-0.1-0.1-0.3-0.3-0.3h-2.7c-0.1,0-0.3,0.1-0.3,0.3v18.7c0,0.1,0.1,0.3,0.3,0.3h2.7c0.1,0,0.3-0.1,0.3-0.3
	v-4.7v-3.6h4.3c0.1,0,0.3-0.1,0.3-0.3V8.5C120.8,8.3,120.7,8.2,120.6,8.2z M116,10.6c-0.1,0-0.3,0.1-0.3,0.3v3.8v4.5h-2.2V1h2.2v7.5
	c0,0.1,0.1,0.3,0.3,0.3h4.3v1.8C120.3,10.6,116,10.6,116,10.6z M108.6,1.7H95.3c-0.1,0-0.3,0.1-0.3,0.3v2.4c0,0.1,0.1,0.3,0.3,0.3
	h9.7c-0.2,1-0.6,2-1.1,3c-0.5,0.9-1.2,1.7-1.9,2.5c-0.2,0.1-0.3,0.3-0.5,0.4c-0.5,0.5-1.1,1-1.7,1.4l0,0l0,0c-0.5,0.4-1,0.7-1.6,1
	c-1.3,0.7-2.6,1.2-4,1.6c-0.1,0-0.2,0.2-0.2,0.3c0,0,0,0,0,0c0,0,0,0.1,0.1,0.1c0.3,0.3,0.5,0.7,0.8,1c0.3,0.4,0.5,0.7,0.8,1
	c0,0,0,0,0,0c0,0,0,0,0,0c0,0,0.1,0,0.1,0l0,0l0,0l0,0l0,0c0,0,0.1,0,0.1,0c1.8-0.5,3.5-1.2,5.1-2.1c1.3-0.7,2.4-1.6,3.4-2.6l0,0
	l0,0c0.2-0.2,0.5-0.5,0.7-0.7c1.1-1.2,2-2.7,2.7-4.4c0.6-1.6,1-3.4,1-5.2C108.8,1.8,108.7,1.7,108.6,1.7z M107.4,6.9
	c-0.6,1.6-1.5,3-2.6,4.2c-0.2,0.2-0.4,0.5-0.7,0.7c-1,1-2,1.8-3.3,2.5c-1.5,0.9-3.1,1.6-4.8,2c-0.3-0.3-0.5-0.6-0.7-0.9c0,0,0,0,0,0
	c0,0,0,0,0,0c-0.2-0.2-0.4-0.4-0.6-0.7c1.3-0.4,2.6-0.9,3.7-1.5c0.6-0.3,1.1-0.6,1.6-1l0,0c0.6-0.4,1.2-0.9,1.8-1.4
	c0.2-0.1,0.3-0.3,0.5-0.5c0.8-0.8,1.4-1.6,2-2.6c0.6-1.1,1-2.3,1.2-3.4c0,0,0,0,0,0c0,0,0,0,0,0c0,0,0,0,0,0c0,0,0,0,0-0.1s0,0,0,0
	c0,0,0,0,0,0c0,0,0,0,0,0c0,0,0,0,0,0c0,0,0,0-0.1,0c0,0,0,0,0,0s0,0,0,0c0,0,0,0,0,0h-9.8V2.2h12.7C108.3,3.8,107.9,5.4,107.4,6.9z
	 M116.4,26h-15v-7.1c0-0.1-0.1-0.3-0.3-0.3h-2.7c-0.1,0-0.3,0.1-0.3,0.3v9.8c0,0.1,0.1,0.3,0.3,0.3h17.9c0.1,0,0.3-0.1,0.3-0.3v-2.4
	C116.7,26.2,116.6,26,116.4,26z M100.9,26.3c0,0.1,0.1,0.3,0.3,0.3h15v1.9H98.8v-9.3h2.1V26.3z M29,0.4h-2.7c-0.1,0-0.3,0.1-0.3,0.3
	v3.4h-3.4h-0.8c-0.1,0-0.3,0.1-0.3,0.3v2.2c0,0.1,0.1,0.3,0.3,0.3h4.2v1.9h-4.2c-0.1,0-0.3,0.1-0.3,0.3v2.2c0,0.1,0.1,0.3,0.3,0.3
	h4.2v4.9c0,0.1,0.1,0.3,0.3,0.3H29c0.1,0,0.3-0.1,0.3-0.3V0.7C29.3,0.6,29.2,0.4,29,0.4z M26.6,11.2c0-0.1-0.1-0.3-0.3-0.3h-4.2V9.2
	h4.2c0.1,0,0.3-0.1,0.3-0.3V6.6c0-0.1-0.1-0.3-0.3-0.3h-4.2V4.6h0.5h3.7c0.1,0,0.3-0.1,0.3-0.3V1h2.2V16h-2.2V11.2z M25.7,21.4
	L25.7,21.4C25.7,21.4,25.7,21.4,25.7,21.4c-0.3-0.6-0.7-1-1.1-1.4h0c0,0,0,0,0,0c-0.5-0.4-1-0.7-1.7-0.9c0,0,0,0,0,0c0,0,0,0,0,0
	c-1.5-0.4-2.9-0.4-4.1,0l0,0l0,0C18,19.3,17.5,19.6,17,20l0,0l0,0c0,0,0,0,0,0l0,0c-0.1,0.1-0.3,0.2-0.4,0.4l0,0l0,0l0,0l0,0
	c-0.3,0.3-0.5,0.6-0.7,1c-0.2,0.5-0.4,1-0.4,1.6l0,0l0,0l0,0l0,0c0,0.1,0,0.2,0,0.3c0,0.7,0.1,1.3,0.4,1.8l0,0c0,0,0,0,0,0l0,0l0,0
	c0.3,0.5,0.6,1,1.2,1.4l0,0l0,0l0,0l0,0c0.4,0.4,1,0.6,1.7,0.9l0,0l0,0c0.6,0.2,1.3,0.3,2,0.3c0.5,0,0.9,0,1.3-0.1l0,0
	c0.3,0,0.5-0.1,0.7-0.2c0,0,0,0,0,0h0c0.6-0.2,1.1-0.5,1.7-0.9c0,0,0,0,0,0c0,0,0,0,0,0c0.1-0.1,0.2-0.2,0.3-0.2c0,0,0,0,0,0
	l0.1-0.1c0.3-0.3,0.6-0.6,0.8-1l0,0l0,0c0.3-0.6,0.4-1.2,0.4-1.8C26.1,22.6,26,22,25.7,21.4z M25.3,24.9c-0.2,0.3-0.4,0.6-0.7,0.9
	c-0.1,0.1-0.2,0.2-0.4,0.3c-0.5,0.3-1,0.6-1.5,0.8C22.5,26.9,22.3,27,22,27l0,0l0,0c-1,0.2-2.1,0.1-3.1-0.2
	c-0.6-0.2-1.1-0.5-1.5-0.8l0,0l0,0c-0.5-0.4-0.8-0.8-1-1.2l0,0c0,0,0,0,0,0c-0.3-0.4-0.4-0.9-0.4-1.6c0-0.1,0-0.2,0-0.2l0,0l0,0
	c0-0.5,0.2-1,0.4-1.4c0.2-0.3,0.4-0.6,0.6-0.9l0,0l0,0c0.1-0.1,0.2-0.2,0.4-0.3c0,0,0,0,0,0h0c0.4-0.3,0.9-0.6,1.5-0.8
	c1.1-0.3,2.4-0.4,3.8,0c0.6,0.2,1.1,0.5,1.5,0.8c0.4,0.3,0.7,0.8,1,1.2c0.2,0.5,0.4,1.1,0.4,1.6C25.6,23.8,25.5,24.4,25.3,24.9z
	 M28.2,20.4L28.2,20.4C28.2,20.4,28.2,20.4,28.2,20.4c-0.4-0.7-0.9-1.4-1.4-1.9l0,0l0,0l0,0l0,0c-0.1-0.1-0.2-0.2-0.3-0.3
	c0,0,0,0,0,0l0,0c-0.8-0.6-1.6-1-2.5-1.3l0,0l0,0c-0.4-0.1-0.9-0.2-1.3-0.3l0,0c-0.5-0.1-1.1-0.1-1.6-0.1l0,0h-0.2
	c-1.1,0-2.1,0.1-3.1,0.4l0,0l0,0c-1,0.3-1.8,0.8-2.5,1.4c-0.1,0.1-0.3,0.2-0.4,0.4l0,0l0,0c-0.1,0-0.1,0.1-0.2,0.2l0,0l0,0l0,0l0,0
	c-0.5,0.5-0.9,1-1.2,1.6c-0.4,0.8-0.6,1.8-0.6,2.9c0,1.1,0.2,2,0.6,2.8l0,0l0,0l0,0l0,0c0.4,0.8,1,1.6,1.7,2.2
	c0.7,0.6,1.5,1,2.5,1.3c0.9,0.3,2,0.5,3.1,0.5c1.1,0,2.1-0.1,3.1-0.5l0,0l0,0c0.9-0.3,1.8-0.8,2.5-1.4c0,0,0,0,0,0c0,0,0,0,0,0
	c0.1-0.1,0.3-0.2,0.4-0.4l0,0l0,0c0.5-0.5,1-1.1,1.3-1.8c0,0,0,0,0,0l0,0c0.4-0.9,0.6-1.8,0.6-2.8C28.8,22.3,28.6,21.3,28.2,20.4z
	 M27.7,25.8c-0.3,0.6-0.8,1.2-1.2,1.7c-0.1,0.1-0.2,0.2-0.4,0.3c-0.8,0.6-1.6,1-2.4,1.3c-1,0.3-1.9,0.5-3,0.5c-1.1,0-2.1-0.1-3-0.5
	c-0.9-0.3-1.7-0.7-2.4-1.2c-0.7-0.5-1.2-1.2-1.6-2l0,0l0,0c-0.4-0.7-0.6-1.6-0.6-2.6c0-1,0.2-1.9,0.6-2.6c0.3-0.5,0.6-1,1.1-1.5l0,0
	l0,0c0.1,0,0.1-0.1,0.2-0.1l0,0c0.1-0.1,0.3-0.2,0.4-0.3c0.7-0.6,1.5-1,2.4-1.3c0.9-0.3,1.9-0.4,2.9-0.4h0.1l0,0l0,0
	c0.5,0,1,0.1,1.5,0.1l0,0c0.4,0.1,0.8,0.2,1.3,0.3c0.9,0.3,1.7,0.7,2.4,1.2c0.1,0.1,0.2,0.2,0.3,0.3l0,0l0,0c0.5,0.5,0.9,1,1.3,1.7
	c0.4,0.8,0.6,1.7,0.6,2.6C28.3,24.2,28.1,25,27.7,25.8z M23.4,13.2C23.4,13.2,23.4,13.2,23.4,13.2L23.4,13.2
	c-0.1-0.4-0.1-0.7-0.2-1.1v0v0c0,0,0,0,0,0c0,0,0,0,0-0.1s0,0,0-0.1c0,0,0,0,0,0c0,0,0,0-0.1,0c0,0,0,0,0,0c0,0,0,0-0.1,0
	c0,0,0,0,0,0h0h0l-0.2,0c-0.7,0.1-1.3,0.2-1.9,0.3h0h0c-0.6,0.1-1.2,0.2-1.8,0.2l0-0.3l0,0l0,0l0.1-1.7l0,0l0,0l0.1-3.1l0,0l0-0.3
	l0,0l0,0l0.1-1.6l0,0c0,0,0,0,0,0c0,0,0,0,0-0.1s0,0,0-0.1s0,0,0,0c0,0,0,0,0,0c0,0,0,0,0,0s0,0,0,0c0,0,0,0,0,0c0,0,0,0,0,0
	c0,0,0,0,0,0l0,0h-2.5c0,0,0,0,0,0c0,0,0,0-0.1,0c0,0,0,0,0,0c0,0,0,0-0.1,0c0,0,0,0,0,0c0,0,0,0,0,0.1s0,0,0,0.1c0,0,0,0,0,0
	c0,0.5-0.1,1.2-0.1,1.8c-0.1,0.7-0.1,1.3-0.1,2l0,0l0,0.1c0,0.6,0,1.2,0,1.8c-0.1,0.6-0.1,1.1-0.1,1.6c-0.7,0.1-1.4,0.1-2,0.1h0h0
	c-0.5,0-1,0.1-1.4,0.1l0,0c-0.2,0-0.4,0-0.5,0c0-0.5-0.1-1-0.1-1.5c0,0,0,0,0,0c0,0,0,0,0,0c0-0.6-0.1-1.3-0.1-1.9v0v0
	c0-0.4-0.1-0.8-0.1-1.3l0,0l0,0c0-0.2,0-0.4,0-0.7c0,0,0,0,0,0c0,0,0,0,0,0c0-0.6-0.1-1.2-0.1-1.8c0-0.1-0.1-0.3-0.3-0.3H8.9
	c-0.1,0-0.3,0.1-0.3,0.3c0,0.6,0,1.2,0.1,1.8c0,0.7,0,1.3,0.1,1.9c0,0.7,0,1.4,0.1,2c0,0.6,0,1.1,0.1,1.5H6c-0.1,0-0.3,0.1-0.3,0.3
	v2.3c0,0.1,0.1,0.3,0.3,0.3h3.8c5,0,9.5-0.3,13.6-1l0,0l0,0l0,0h0c0,0,0.1,0,0.1,0c0,0,0,0,0,0c0,0,0,0,0,0c0,0,0,0,0,0
	c0,0,0,0,0-0.1c0,0,0,0,0,0c0,0,0-0.1,0-0.1C23.5,14,23.4,13.6,23.4,13.2z M9.8,15.1H6.2v-1.8h3l0,0h0c0,0,0,0,0,0c0,0,0,0,0.1,0
	c0,0,0,0,0,0c0,0,0,0,0,0c0,0,0,0,0,0c0,0,0,0,0,0c0,0,0,0,0-0.1c0,0,0,0,0,0c0,0,0,0,0,0c0,0,0,0,0,0c0-0.5-0.1-1.1-0.1-1.8v0v0
	C9.4,10.7,9.3,10,9.3,9.3c0,0,0,0,0,0c0,0,0,0,0,0c0-0.6-0.1-1.3-0.1-1.9v0v0c-0.1-0.5-0.1-1-0.1-1.5h2c0,0.5,0,1,0.1,1.5
	c0,0.2,0,0.4,0,0.7l0,0c0,0.4,0,0.9,0.1,1.3c0,0.7,0,1.3,0.1,2l0,0c0,0.6,0,1.2,0.1,1.8c0,0,0,0,0,0.1c0,0,0,0,0,0c0,0,0,0,0,0.1
	c0,0,0,0,0,0c0,0,0,0,0.1,0c0,0,0,0,0,0c0,0,0.1,0,0.1,0l0,0l0,0c0.3,0,0.5,0,0.8,0l0,0c0.4,0,0.9,0,1.4-0.1c0.7,0,1.5,0,2.3-0.1
	c0,0,0,0,0,0c0,0,0,0,0,0c0,0,0,0,0,0c0,0,0,0,0,0c0,0,0,0,0,0s0,0,0,0c0,0,0,0,0-0.1c0,0,0,0,0,0c0-0.5,0-1.1,0.1-1.8v0v0
	c0-0.6,0-1.1,0-1.8l0-0.1c0,0,0,0,0,0c0,0,0,0,0,0c0-0.6,0-1.3,0.1-1.9v0v0c0-0.5,0-1,0-1.5h2l0,1.3l0,0l0,0.3l0,0l0,0l-0.1,3.1l0,0
	l-0.1,1.7l0,0l0,0.6c0,0,0,0,0,0s0,0,0,0s0,0,0,0c0,0,0,0,0,0c0,0,0,0,0,0.1c0,0,0,0,0,0c0,0,0,0,0,0c0,0,0,0,0,0c0,0,0,0,0.1,0
	c0,0,0,0,0,0h0l0,0l0,0l0,0l0,0c0,0,0,0,0,0c0.7-0.1,1.4-0.1,2.2-0.3c0.6-0.1,1.2-0.1,1.9-0.3c0,0.3,0.1,0.6,0.1,0.9
	c0,0.3,0,0.6,0.1,0.9C19,14.8,14.6,15.1,9.8,15.1z M21.8,1.7C21.8,1.7,21.8,1.7,21.8,1.7C21.8,1.7,21.8,1.7,21.8,1.7H6.3
	c-0.1,0-0.3,0.1-0.3,0.3v2.3c0,0.1,0.1,0.3,0.3,0.3h15.4l0,0c0,0,0,0,0,0c0.1,0,0.3-0.1,0.3-0.3V1.9C22,1.8,21.9,1.7,21.8,1.7z
	 M6.6,2.2h14.9V4H6.6V2.2z"/>
</svg>
