<?xml version="1.0" encoding="utf-8"?>
<!-- Generator: Adobe Illustrator 24.1.2, SVG Export Plug-In . SVG Version: 6.00 Build 0)  -->
<svg version="1.1" id="레이어_1" xmlns="http://www.w3.org/2000/svg" xmlns:xlink="http://www.w3.org/1999/xlink" x="0px"
	 y="0px" viewBox="0 0 190 230" style="enable-background:new 0 0 190 230;" xml:space="preserve">
<style type="text/css">
	.st0{fill:none;}
</style>
<path class="st0" d="M78.2,226.8l-66.7-25.3v-64.6l31.3-31.3l35.4,56.6V226.8z M161.7,186.5l-83.6,40.3v-64.6l5,8l78.6-37.8V186.5z
	 M168,129.4l-84.9,40.8l-40.4-64.6l84.4-32.3L168,129.4z M42.8,105.6l-38,38 M140.6,180.4l-41.3,19.9v-31.9l41.3-19.9V180.4z
	 M48.5,217.5l-17.8-6.6v-39.2l17.8,6.6V217.5z M151.6,22.9c8,0,14.6,6.5,14.6,14.6S159.7,52,151.6,52S137,45.5,137,37.5
	S143.6,22.9,151.6,22.9z M149,58.2l-10.3,80.2 M165.2,55.1l7.8,10.2 M172.3,40.1l12.7,1.6 M168.1,24.7l10.2-7.9 M154.3,16.8
	l1.6-12.7 M138.9,21L131,10.8 M130.9,34.8l-12.6-1.6 M135.1,50.2L83.8,89.9"/>
</svg>
