<?xml version="1.0" encoding="utf-8"?>
<!-- Generator: Adobe Illustrator 24.1.2, SVG Export Plug-In . SVG Version: 6.00 Build 0)  -->
<svg version="1.1" id="레이어_1" xmlns="http://www.w3.org/2000/svg" xmlns:xlink="http://www.w3.org/1999/xlink" x="0px"
	 y="0px" viewBox="0 0 160 170" style="enable-background:new 0 0 160 170;" xml:space="preserve">
<style type="text/css">
	.st0{fill:#FFFFFF;}
</style>
<path class="st0" d="M67,2.8h26.1c1.1,0,2,0.8,2,1.8V31c0,1-0.9,1.8-2,1.8H67c-1.1,0-2-0.8-2-1.8V4.6C65,3.6,65.9,2.8,67,2.8z
	 M52.3,107h55.5c1.3,0,2.3,0.9,2.3,2.1v55.9c0,1.1-1,2.1-2.3,2.1H52.3c-1.3,0-2.3-0.9-2.3-2.1v-55.9C50,107.9,51,107,52.3,107z
	 M154.4,70.7H5c-0.6,0-1-0.4-1-1s0.4-1,1-1h149.5c0.6,0,1,0.4,1,1S155,70.7,154.4,70.7z"/>
</svg>
